%TF.GenerationSoftware,KiCad,Pcbnew,9.0.8*%
%TF.CreationDate,2026-03-26T00:07:00-06:00*%
%TF.ProjectId,hivis2,68697669-7332-42e6-9b69-6361645f7063,rev?*%
%TF.SameCoordinates,Original*%
%TF.FileFunction,Copper,L2,Bot*%
%TF.FilePolarity,Positive*%
%FSLAX46Y46*%
G04 Gerber Fmt 4.6, Leading zero omitted, Abs format (unit mm)*
G04 Created by KiCad (PCBNEW 9.0.8) date 2026-03-26 00:07:00*
%MOMM*%
%LPD*%
G01*
G04 APERTURE LIST*
G04 Aperture macros list*
%AMRoundRect*
0 Rectangle with rounded corners*
0 $1 Rounding radius*
0 $2 $3 $4 $5 $6 $7 $8 $9 X,Y pos of 4 corners*
0 Add a 4 corners polygon primitive as box body*
4,1,4,$2,$3,$4,$5,$6,$7,$8,$9,$2,$3,0*
0 Add four circle primitives for the rounded corners*
1,1,$1+$1,$2,$3*
1,1,$1+$1,$4,$5*
1,1,$1+$1,$6,$7*
1,1,$1+$1,$8,$9*
0 Add four rect primitives between the rounded corners*
20,1,$1+$1,$2,$3,$4,$5,0*
20,1,$1+$1,$4,$5,$6,$7,0*
20,1,$1+$1,$6,$7,$8,$9,0*
20,1,$1+$1,$8,$9,$2,$3,0*%
G04 Aperture macros list end*
%TA.AperFunction,ComponentPad*%
%ADD10O,1.900000X1.524000*%
%TD*%
%TA.AperFunction,ComponentPad*%
%ADD11C,2.000000*%
%TD*%
%TA.AperFunction,ComponentPad*%
%ADD12R,2.000000X2.000000*%
%TD*%
%TA.AperFunction,ComponentPad*%
%ADD13C,1.700000*%
%TD*%
%TA.AperFunction,ComponentPad*%
%ADD14RoundRect,0.250000X-0.350000X-0.625000X0.350000X-0.625000X0.350000X0.625000X-0.350000X0.625000X0*%
%TD*%
%TA.AperFunction,ComponentPad*%
%ADD15O,1.200000X1.750000*%
%TD*%
%TA.AperFunction,ComponentPad*%
%ADD16C,1.400000*%
%TD*%
%TA.AperFunction,ComponentPad*%
%ADD17R,1.700000X1.700000*%
%TD*%
%TA.AperFunction,ComponentPad*%
%ADD18C,1.600000*%
%TD*%
%TA.AperFunction,ViaPad*%
%ADD19C,0.800000*%
%TD*%
%TA.AperFunction,Conductor*%
%ADD20C,0.250000*%
%TD*%
G04 APERTURE END LIST*
D10*
%TO.P,U1,1,VIN*%
%TO.N,+5V*%
X134250040Y-66310013D03*
%TO.P,U1,2,GND*%
%TO.N,GND*%
X134250040Y-63770013D03*
%TO.P,U1,3,GPIO13*%
X134250040Y-61230013D03*
%TO.P,U1,4,GPIO12*%
%TO.N,/I2S_WS*%
X134250040Y-58690013D03*
%TO.P,U1,5,GPIO14*%
%TO.N,/I2S_SCK*%
X134250040Y-56150013D03*
%TO.P,U1,6,GPIO27*%
%TO.N,unconnected-(U1-GPIO27-Pad6)*%
X134250040Y-53610013D03*
%TO.P,U1,7,GPIO26*%
%TO.N,/I2S_SD*%
X134250040Y-51070013D03*
%TO.P,U1,8,GPIO25*%
%TO.N,/Buzzer*%
X134250040Y-48530013D03*
%TO.P,U1,9,GPIO33*%
%TO.N,unconnected-(U1-GPIO33-Pad9)*%
X134250040Y-45990013D03*
%TO.P,U1,10,GPIO32*%
%TO.N,unconnected-(U1-GPIO32-Pad10)*%
X134250040Y-43450013D03*
%TO.P,U1,11,GPIO35*%
%TO.N,unconnected-(U1-GPIO35-Pad11)*%
X134250040Y-40910013D03*
%TO.P,U1,12,GPIO34*%
%TO.N,unconnected-(U1-GPIO34-Pad12)*%
X134250040Y-38370013D03*
%TO.P,U1,13,GPIO39*%
%TO.N,unconnected-(U1-GPIO39-Pad13)*%
X134250040Y-35830013D03*
%TO.P,U1,14,GPIO36*%
%TO.N,/BAT_ADC*%
X134250040Y-33290013D03*
%TO.P,U1,15,EN*%
%TO.N,unconnected-(U1-EN-Pad15)*%
X134250040Y-30750013D03*
%TO.P,U1,16,3.3v*%
%TO.N,+3V3*%
X108850040Y-66310013D03*
%TO.P,U1,17,GND*%
%TO.N,GND*%
X108850040Y-63770013D03*
%TO.P,U1,18,GPIO15*%
%TO.N,unconnected-(U1-GPIO15-Pad18)*%
X108850040Y-61230013D03*
%TO.P,U1,19,GPIO2*%
%TO.N,unconnected-(U1-GPIO2-Pad19)*%
X108850040Y-58690013D03*
%TO.P,U1,20,GPIO4*%
%TO.N,/BTN*%
X108850040Y-56150013D03*
%TO.P,U1,21,GPIO16*%
%TO.N,unconnected-(U1-GPIO16-Pad21)*%
X108850040Y-53610013D03*
%TO.P,U1,22,GPIO17*%
%TO.N,unconnected-(U1-GPIO17-Pad22)*%
X108850040Y-51070013D03*
%TO.P,U1,23,GPIO5*%
%TO.N,unconnected-(U1-GPIO5-Pad23)*%
X108850040Y-48530013D03*
%TO.P,U1,24,GPIO18*%
%TO.N,unconnected-(U1-GPIO18-Pad24)*%
X108850040Y-45990013D03*
%TO.P,U1,25,GPIO19*%
%TO.N,unconnected-(U1-GPIO19-Pad25)*%
X108850040Y-43450013D03*
%TO.P,U1,26,GPIO21*%
%TO.N,/SDA*%
X108850040Y-40910013D03*
%TO.P,U1,27,GPIO3*%
%TO.N,unconnected-(U1-GPIO3-Pad27)*%
X108850040Y-38370013D03*
%TO.P,U1,28,GPIO1*%
%TO.N,unconnected-(U1-GPIO1-Pad28)*%
X108850040Y-35830013D03*
%TO.P,U1,29,GPIO22*%
%TO.N,/SCL*%
X108850040Y-33290013D03*
%TO.P,U1,30,GPIO23*%
%TO.N,unconnected-(U1-GPIO23-Pad30)*%
X108850040Y-30750013D03*
%TD*%
D11*
%TO.P,SW1,1,1*%
%TO.N,/BTN*%
X145500000Y-70250000D03*
X139000000Y-70250000D03*
%TO.P,SW1,2,2*%
%TO.N,GND*%
X145500000Y-65750000D03*
X139000000Y-65750000D03*
%TD*%
D12*
%TO.P,BZ1,1,+*%
%TO.N,Net-(BZ1-+)*%
X140000000Y-31500000D03*
D11*
%TO.P,BZ1,2,-*%
%TO.N,GND*%
X145000000Y-31500000D03*
%TD*%
D13*
%TO.P,J4,1,Pin_1*%
%TO.N,GND*%
X172500000Y-26500000D03*
%TO.P,J4,2,Pin_2*%
%TO.N,unconnected-(J4-Pin_2-Pad2)*%
X172500000Y-41740000D03*
%TO.P,J4,3,Pin_3*%
%TO.N,GND*%
X172500000Y-49360000D03*
%TO.P,J4,4,Pin_4*%
%TO.N,+5V*%
X172500000Y-54440000D03*
%TO.P,J4,5,Pin_5*%
%TO.N,+BATT*%
X152180000Y-39200000D03*
%TO.P,J4,6,Pin_6*%
%TO.N,GND*%
X152180000Y-49360000D03*
%TD*%
D14*
%TO.P,J5,1,Pin_1*%
%TO.N,+BATT*%
X152500000Y-69500000D03*
D15*
%TO.P,J5,2,Pin_2*%
%TO.N,GND*%
X154500000Y-69500000D03*
%TD*%
D16*
%TO.P,R5,1*%
%TO.N,/Buzzer*%
X138500000Y-60500000D03*
%TO.P,R5,2*%
%TO.N,Net-(BZ1-+)*%
X146120000Y-60500000D03*
%TD*%
D17*
%TO.P,J1,1,Pin_1*%
%TO.N,unconnected-(J1-Pin_1-Pad1)*%
X127870000Y-40780000D03*
D13*
%TO.P,J1,2,Pin_2*%
%TO.N,+3V3*%
X125330000Y-40780000D03*
%TO.P,J1,3,Pin_3*%
%TO.N,GND*%
X122790000Y-40780000D03*
%TO.P,J1,4,Pin_4*%
%TO.N,/SCL*%
X120250000Y-40780000D03*
%TO.P,J1,5,Pin_5*%
%TO.N,unconnected-(J1-Pin_5-Pad5)*%
X117710000Y-40780000D03*
%TO.P,J1,6,Pin_6*%
%TO.N,/SDA*%
X115170000Y-40780000D03*
%TO.P,J1,7,Pin_7*%
%TO.N,unconnected-(J1-Pin_7-Pad7)*%
X112630000Y-40780000D03*
%TD*%
D18*
%TO.P,C2,1*%
%TO.N,+3V3*%
X145500000Y-46000000D03*
%TO.P,C2,2*%
%TO.N,GND*%
X145500000Y-41000000D03*
%TD*%
D16*
%TO.P,R4,1*%
%TO.N,/BAT_ADC*%
X149380000Y-64000000D03*
%TO.P,R4,2*%
%TO.N,GND*%
X157000000Y-64000000D03*
%TD*%
%TO.P,R2,1*%
%TO.N,+3V3*%
X138500000Y-55000000D03*
%TO.P,R2,2*%
%TO.N,/SDA*%
X146120000Y-55000000D03*
%TD*%
D18*
%TO.P,C1,1*%
%TO.N,+3V3*%
X139000000Y-46000000D03*
%TO.P,C1,2*%
%TO.N,GND*%
X139000000Y-41000000D03*
%TD*%
D16*
%TO.P,R1,1*%
%TO.N,+3V3*%
X138500000Y-49500000D03*
%TO.P,R1,2*%
%TO.N,/SCL*%
X146120000Y-49500000D03*
%TD*%
D13*
%TO.P,J2,1,Pin_1*%
%TO.N,GND*%
X164500000Y-62000000D03*
%TO.P,J2,2,Pin_2*%
%TO.N,+3V3*%
X164500000Y-64540000D03*
%TO.P,J2,3,Pin_3*%
%TO.N,/I2S_SD*%
X164500000Y-67080000D03*
%TO.P,J2,4,Pin_4*%
%TO.N,GND*%
X172500000Y-62000000D03*
%TO.P,J2,5,Pin_5*%
%TO.N,/I2S_WS*%
X172500000Y-64540000D03*
%TO.P,J2,6,Pin_6*%
%TO.N,/I2S_SCK*%
X172500000Y-67080000D03*
%TD*%
D16*
%TO.P,R3,1*%
%TO.N,+BATT*%
X149380000Y-58500000D03*
%TO.P,R3,2*%
%TO.N,/BAT_ADC*%
X157000000Y-58500000D03*
%TD*%
D17*
%TO.P,J3,1,Pin_1*%
%TO.N,GND*%
X115500000Y-48000000D03*
D13*
%TO.P,J3,2,Pin_2*%
%TO.N,+3V3*%
X118040000Y-48000000D03*
%TO.P,J3,3,Pin_3*%
%TO.N,/SCL*%
X120580000Y-48000000D03*
%TO.P,J3,4,Pin_4*%
%TO.N,/SDA*%
X123120000Y-48000000D03*
%TD*%
D19*
%TO.N,+3V3*%
X139574100Y-62888900D03*
%TO.N,/I2S_SD*%
X135732600Y-62679000D03*
%TD*%
D20*
%TO.N,+BATT*%
X149380000Y-42000000D02*
X152180000Y-39200000D01*
X149380000Y-58500000D02*
X149380000Y-42000000D01*
X152500000Y-61620000D02*
X152500000Y-69500000D01*
X149380000Y-58500000D02*
X152500000Y-61620000D01*
%TO.N,Net-(BZ1-+)*%
X141326700Y-55706700D02*
X146120000Y-60500000D01*
X141326700Y-34153400D02*
X141326700Y-55706700D01*
X140000000Y-32826700D02*
X141326700Y-34153400D01*
X140000000Y-31500000D02*
X140000000Y-32826700D01*
%TO.N,/Buzzer*%
X134250000Y-48530000D02*
X134250000Y-49618700D01*
X134556200Y-49618700D02*
X134250000Y-49618700D01*
X135702800Y-50765300D02*
X134556200Y-49618700D01*
X135702800Y-57695200D02*
X135702800Y-50765300D01*
X138500000Y-60492400D02*
X135702800Y-57695200D01*
X138500000Y-60500000D02*
X138500000Y-60492400D01*
%TO.N,+3V3*%
X138500000Y-46500000D02*
X138500000Y-49500000D01*
X139000000Y-46000000D02*
X138500000Y-46500000D01*
X108850000Y-66310000D02*
X108850000Y-65221300D01*
X118040000Y-56575600D02*
X118040000Y-49193300D01*
X109394300Y-65221300D02*
X118040000Y-56575600D01*
X108850000Y-65221300D02*
X109394300Y-65221300D01*
X121850000Y-44260000D02*
X125330000Y-40780000D01*
X121850000Y-48412000D02*
X121850000Y-44260000D01*
X121068700Y-49193300D02*
X121850000Y-48412000D01*
X118040000Y-49193300D02*
X121068700Y-49193300D01*
X118040000Y-49193300D02*
X118040000Y-48000000D01*
X138500000Y-55000000D02*
X138500000Y-49500000D01*
X139574100Y-56074100D02*
X139574100Y-62888900D01*
X138500000Y-55000000D02*
X139574100Y-56074100D01*
%TO.N,/BAT_ADC*%
X149380000Y-68185400D02*
X149380000Y-64000000D01*
X152026700Y-70832100D02*
X149380000Y-68185400D01*
X154923400Y-70832100D02*
X152026700Y-70832100D01*
X155576200Y-70179300D02*
X154923400Y-70832100D01*
X155576200Y-59923800D02*
X155576200Y-70179300D01*
X157000000Y-58500000D02*
X155576200Y-59923800D01*
X148166600Y-64000000D02*
X149380000Y-64000000D01*
X140225200Y-56058600D02*
X148166600Y-64000000D01*
X140225200Y-44486300D02*
X140225200Y-56058600D01*
X136576400Y-40837500D02*
X140225200Y-44486300D01*
X136576400Y-36398900D02*
X136576400Y-40837500D01*
X134556200Y-34378700D02*
X136576400Y-36398900D01*
X134250000Y-34378700D02*
X134556200Y-34378700D01*
X134250000Y-33290000D02*
X134250000Y-34378700D01*
%TO.N,/I2S_SD*%
X134250000Y-51070000D02*
X134250000Y-52158700D01*
X133943800Y-52158700D02*
X134250000Y-52158700D01*
X132971300Y-53131200D02*
X133943800Y-52158700D01*
X132971300Y-56642400D02*
X132971300Y-53131200D01*
X133589600Y-57260700D02*
X132971300Y-56642400D01*
X134624000Y-57260700D02*
X133589600Y-57260700D01*
X135732600Y-58369300D02*
X134624000Y-57260700D01*
X135732600Y-62679000D02*
X135732600Y-58369300D01*
%TO.N,/SCL*%
X120580000Y-41110000D02*
X120580000Y-48000000D01*
X120250000Y-40780000D02*
X120580000Y-41110000D01*
%TD*%
%TA.AperFunction,Conductor*%
%TO.N,GND*%
G36*
X108283565Y-24020185D02*
G01*
X108329320Y-24072989D01*
X108339264Y-24142147D01*
X108314901Y-24199987D01*
X108225575Y-24316396D01*
X108094458Y-24543499D01*
X108094453Y-24543509D01*
X107994105Y-24785771D01*
X107994102Y-24785781D01*
X107926230Y-25039085D01*
X107892000Y-25299072D01*
X107892000Y-25561327D01*
X107912936Y-25720340D01*
X107926230Y-25821316D01*
X107947678Y-25901361D01*
X107994102Y-26074618D01*
X107994105Y-26074628D01*
X108094453Y-26316890D01*
X108094458Y-26316900D01*
X108225575Y-26544003D01*
X108385218Y-26752051D01*
X108385226Y-26752060D01*
X108570640Y-26937474D01*
X108570648Y-26937481D01*
X108778696Y-27097124D01*
X109005799Y-27228241D01*
X109005809Y-27228246D01*
X109248071Y-27328594D01*
X109248081Y-27328598D01*
X109501384Y-27396470D01*
X109761380Y-27430700D01*
X109761387Y-27430700D01*
X110023613Y-27430700D01*
X110023620Y-27430700D01*
X110283616Y-27396470D01*
X110536919Y-27328598D01*
X110779197Y-27228243D01*
X111006303Y-27097124D01*
X111214351Y-26937482D01*
X111214355Y-26937477D01*
X111214360Y-26937474D01*
X111399774Y-26752060D01*
X111399777Y-26752055D01*
X111399782Y-26752051D01*
X111559424Y-26544003D01*
X111690543Y-26316897D01*
X111790898Y-26074619D01*
X111858770Y-25821316D01*
X111893000Y-25561320D01*
X111893000Y-25299080D01*
X111858770Y-25039084D01*
X111790898Y-24785781D01*
X111692704Y-24548720D01*
X111690546Y-24543509D01*
X111690541Y-24543499D01*
X111559424Y-24316396D01*
X111470099Y-24199987D01*
X111444904Y-24134818D01*
X111458942Y-24066373D01*
X111507756Y-24016383D01*
X111568474Y-24000500D01*
X131216526Y-24000500D01*
X131283565Y-24020185D01*
X131329320Y-24072989D01*
X131339264Y-24142147D01*
X131314901Y-24199987D01*
X131225575Y-24316396D01*
X131094458Y-24543499D01*
X131094453Y-24543509D01*
X130994105Y-24785771D01*
X130994102Y-24785781D01*
X130926230Y-25039085D01*
X130892000Y-25299072D01*
X130892000Y-25561327D01*
X130912936Y-25720340D01*
X130926230Y-25821316D01*
X130947678Y-25901361D01*
X130994102Y-26074618D01*
X130994105Y-26074628D01*
X131094453Y-26316890D01*
X131094458Y-26316900D01*
X131225575Y-26544003D01*
X131385218Y-26752051D01*
X131385226Y-26752060D01*
X131570640Y-26937474D01*
X131570648Y-26937481D01*
X131778696Y-27097124D01*
X132005799Y-27228241D01*
X132005809Y-27228246D01*
X132248071Y-27328594D01*
X132248081Y-27328598D01*
X132501384Y-27396470D01*
X132761380Y-27430700D01*
X132761387Y-27430700D01*
X133023613Y-27430700D01*
X133023620Y-27430700D01*
X133283616Y-27396470D01*
X133536919Y-27328598D01*
X133779197Y-27228243D01*
X134006303Y-27097124D01*
X134214351Y-26937482D01*
X134214355Y-26937477D01*
X134214360Y-26937474D01*
X134399774Y-26752060D01*
X134399777Y-26752055D01*
X134399782Y-26752051D01*
X134559424Y-26544003D01*
X134690543Y-26316897D01*
X134790898Y-26074619D01*
X134858770Y-25821316D01*
X134893000Y-25561320D01*
X134893000Y-25299080D01*
X134858770Y-25039084D01*
X134790898Y-24785781D01*
X134692704Y-24548720D01*
X134690546Y-24543509D01*
X134690541Y-24543499D01*
X134559424Y-24316396D01*
X134470099Y-24199987D01*
X134444904Y-24134818D01*
X134458942Y-24066373D01*
X134507756Y-24016383D01*
X134568474Y-24000500D01*
X174875500Y-24000500D01*
X174942539Y-24020185D01*
X174988294Y-24072989D01*
X174999500Y-24124500D01*
X174999500Y-72875500D01*
X174979815Y-72942539D01*
X174927011Y-72988294D01*
X174875500Y-72999500D01*
X134451696Y-72999500D01*
X134384657Y-72979815D01*
X134338902Y-72927011D01*
X134328958Y-72857853D01*
X134357983Y-72794297D01*
X134364015Y-72787819D01*
X134399774Y-72752060D01*
X134399777Y-72752055D01*
X134399782Y-72752051D01*
X134559424Y-72544003D01*
X134690543Y-72316897D01*
X134790898Y-72074619D01*
X134858770Y-71821316D01*
X134893000Y-71561320D01*
X134893000Y-71299080D01*
X134858770Y-71039084D01*
X134790898Y-70785781D01*
X134692704Y-70548720D01*
X134690546Y-70543509D01*
X134690541Y-70543499D01*
X134559424Y-70316396D01*
X134472045Y-70202523D01*
X134419550Y-70134111D01*
X134417855Y-70131902D01*
X137499500Y-70131902D01*
X137499500Y-70368097D01*
X137536446Y-70601368D01*
X137609433Y-70825996D01*
X137716657Y-71036433D01*
X137855483Y-71227510D01*
X138022490Y-71394517D01*
X138213567Y-71533343D01*
X138268475Y-71561320D01*
X138424003Y-71640566D01*
X138424005Y-71640566D01*
X138424008Y-71640568D01*
X138544412Y-71679689D01*
X138648631Y-71713553D01*
X138881903Y-71750500D01*
X138881908Y-71750500D01*
X139118097Y-71750500D01*
X139351368Y-71713553D01*
X139575992Y-71640568D01*
X139786433Y-71533343D01*
X139977510Y-71394517D01*
X140144517Y-71227510D01*
X140283343Y-71036433D01*
X140390568Y-70825992D01*
X140463553Y-70601368D01*
X140472718Y-70543503D01*
X140500500Y-70368097D01*
X140500500Y-70131902D01*
X143999500Y-70131902D01*
X143999500Y-70368097D01*
X144036446Y-70601368D01*
X144109433Y-70825996D01*
X144216657Y-71036433D01*
X144355483Y-71227510D01*
X144522490Y-71394517D01*
X144713567Y-71533343D01*
X144768475Y-71561320D01*
X144924003Y-71640566D01*
X144924005Y-71640566D01*
X144924008Y-71640568D01*
X145044412Y-71679689D01*
X145148631Y-71713553D01*
X145381903Y-71750500D01*
X145381908Y-71750500D01*
X145618097Y-71750500D01*
X145851368Y-71713553D01*
X146075992Y-71640568D01*
X146286433Y-71533343D01*
X146477510Y-71394517D01*
X146644517Y-71227510D01*
X146783343Y-71036433D01*
X146890568Y-70825992D01*
X146963553Y-70601368D01*
X146972718Y-70543503D01*
X147000500Y-70368097D01*
X147000500Y-70131902D01*
X146963553Y-69898631D01*
X146890566Y-69674003D01*
X146818110Y-69531802D01*
X146783343Y-69463567D01*
X146644517Y-69272490D01*
X146477510Y-69105483D01*
X146286433Y-68966657D01*
X146075996Y-68859433D01*
X145851368Y-68786446D01*
X145618097Y-68749500D01*
X145618092Y-68749500D01*
X145381908Y-68749500D01*
X145381903Y-68749500D01*
X145148631Y-68786446D01*
X144924003Y-68859433D01*
X144713566Y-68966657D01*
X144638842Y-69020948D01*
X144522490Y-69105483D01*
X144522488Y-69105485D01*
X144522487Y-69105485D01*
X144355485Y-69272487D01*
X144355485Y-69272488D01*
X144355483Y-69272490D01*
X144320740Y-69320310D01*
X144216657Y-69463566D01*
X144109433Y-69674003D01*
X144036446Y-69898631D01*
X143999500Y-70131902D01*
X140500500Y-70131902D01*
X140463553Y-69898631D01*
X140390566Y-69674003D01*
X140318110Y-69531802D01*
X140283343Y-69463567D01*
X140144517Y-69272490D01*
X139977510Y-69105483D01*
X139786433Y-68966657D01*
X139575996Y-68859433D01*
X139351368Y-68786446D01*
X139118097Y-68749500D01*
X139118092Y-68749500D01*
X138881908Y-68749500D01*
X138881903Y-68749500D01*
X138648631Y-68786446D01*
X138424003Y-68859433D01*
X138213566Y-68966657D01*
X138138842Y-69020948D01*
X138022490Y-69105483D01*
X138022488Y-69105485D01*
X138022487Y-69105485D01*
X137855485Y-69272487D01*
X137855485Y-69272488D01*
X137855483Y-69272490D01*
X137820740Y-69320310D01*
X137716657Y-69463566D01*
X137609433Y-69674003D01*
X137536446Y-69898631D01*
X137499500Y-70131902D01*
X134417855Y-70131902D01*
X134399782Y-70108349D01*
X134399781Y-70108348D01*
X134399774Y-70108340D01*
X134214360Y-69922926D01*
X134214351Y-69922918D01*
X134006303Y-69763275D01*
X133779200Y-69632158D01*
X133779190Y-69632153D01*
X133536928Y-69531805D01*
X133536921Y-69531803D01*
X133536919Y-69531802D01*
X133283616Y-69463930D01*
X133225839Y-69456323D01*
X133023627Y-69429700D01*
X133023620Y-69429700D01*
X132761380Y-69429700D01*
X132761372Y-69429700D01*
X132530272Y-69460126D01*
X132501384Y-69463930D01*
X132248081Y-69531802D01*
X132248071Y-69531805D01*
X132005809Y-69632153D01*
X132005799Y-69632158D01*
X131778696Y-69763275D01*
X131570648Y-69922918D01*
X131385218Y-70108348D01*
X131225575Y-70316396D01*
X131094458Y-70543499D01*
X131094453Y-70543509D01*
X130994105Y-70785771D01*
X130994102Y-70785781D01*
X130926941Y-71036433D01*
X130926230Y-71039085D01*
X130892000Y-71299072D01*
X130892000Y-71561327D01*
X130902433Y-71640566D01*
X130926230Y-71821316D01*
X130947678Y-71901361D01*
X130994102Y-72074618D01*
X130994105Y-72074628D01*
X131094453Y-72316890D01*
X131094458Y-72316900D01*
X131225575Y-72544003D01*
X131385218Y-72752051D01*
X131385226Y-72752060D01*
X131420985Y-72787819D01*
X131454470Y-72849142D01*
X131449486Y-72918834D01*
X131407614Y-72974767D01*
X131342150Y-72999184D01*
X131333304Y-72999500D01*
X111451696Y-72999500D01*
X111384657Y-72979815D01*
X111338902Y-72927011D01*
X111328958Y-72857853D01*
X111357983Y-72794297D01*
X111364015Y-72787819D01*
X111399774Y-72752060D01*
X111399777Y-72752055D01*
X111399782Y-72752051D01*
X111559424Y-72544003D01*
X111690543Y-72316897D01*
X111790898Y-72074619D01*
X111858770Y-71821316D01*
X111893000Y-71561320D01*
X111893000Y-71299080D01*
X111858770Y-71039084D01*
X111790898Y-70785781D01*
X111692704Y-70548720D01*
X111690546Y-70543509D01*
X111690541Y-70543499D01*
X111559424Y-70316396D01*
X111419550Y-70134111D01*
X111399782Y-70108349D01*
X111399781Y-70108348D01*
X111399774Y-70108340D01*
X111214360Y-69922926D01*
X111214351Y-69922918D01*
X111006303Y-69763275D01*
X110779200Y-69632158D01*
X110779190Y-69632153D01*
X110536928Y-69531805D01*
X110536921Y-69531803D01*
X110536919Y-69531802D01*
X110283616Y-69463930D01*
X110225839Y-69456323D01*
X110023627Y-69429700D01*
X110023620Y-69429700D01*
X109761380Y-69429700D01*
X109761372Y-69429700D01*
X109530272Y-69460126D01*
X109501384Y-69463930D01*
X109248081Y-69531802D01*
X109248071Y-69531805D01*
X109005809Y-69632153D01*
X109005799Y-69632158D01*
X108778696Y-69763275D01*
X108570648Y-69922918D01*
X108385218Y-70108348D01*
X108225575Y-70316396D01*
X108094458Y-70543499D01*
X108094453Y-70543509D01*
X107994105Y-70785771D01*
X107994102Y-70785781D01*
X107926941Y-71036433D01*
X107926230Y-71039085D01*
X107892000Y-71299072D01*
X107892000Y-71561327D01*
X107902433Y-71640566D01*
X107926230Y-71821316D01*
X107947678Y-71901361D01*
X107994102Y-72074618D01*
X107994105Y-72074628D01*
X108094453Y-72316890D01*
X108094458Y-72316900D01*
X108225575Y-72544003D01*
X108385218Y-72752051D01*
X108385226Y-72752060D01*
X108420985Y-72787819D01*
X108454470Y-72849142D01*
X108449486Y-72918834D01*
X108407614Y-72974767D01*
X108342150Y-72999184D01*
X108333304Y-72999500D01*
X106124500Y-72999500D01*
X106057461Y-72979815D01*
X106011706Y-72927011D01*
X106000500Y-72875500D01*
X106000500Y-66210652D01*
X107399540Y-66210652D01*
X107399540Y-66409373D01*
X107430627Y-66605650D01*
X107492033Y-66794642D01*
X107492034Y-66794645D01*
X107582253Y-66971707D01*
X107699059Y-67132477D01*
X107839576Y-67272994D01*
X108000346Y-67389800D01*
X108087189Y-67434048D01*
X108177407Y-67480018D01*
X108177410Y-67480019D01*
X108271906Y-67510722D01*
X108366404Y-67541426D01*
X108562679Y-67572513D01*
X108562680Y-67572513D01*
X109137400Y-67572513D01*
X109137401Y-67572513D01*
X109333676Y-67541426D01*
X109522672Y-67480018D01*
X109699734Y-67389800D01*
X109860504Y-67272994D01*
X110001021Y-67132477D01*
X110117827Y-66971707D01*
X110208045Y-66794645D01*
X110269453Y-66605649D01*
X110300540Y-66409374D01*
X110300540Y-66210652D01*
X132799540Y-66210652D01*
X132799540Y-66409373D01*
X132830627Y-66605650D01*
X132892033Y-66794642D01*
X132892034Y-66794645D01*
X132982253Y-66971707D01*
X133099059Y-67132477D01*
X133239576Y-67272994D01*
X133400346Y-67389800D01*
X133487189Y-67434048D01*
X133577407Y-67480018D01*
X133577410Y-67480019D01*
X133671906Y-67510722D01*
X133766404Y-67541426D01*
X133962679Y-67572513D01*
X133962680Y-67572513D01*
X134537400Y-67572513D01*
X134537401Y-67572513D01*
X134733676Y-67541426D01*
X134922672Y-67480018D01*
X135099734Y-67389800D01*
X135260504Y-67272994D01*
X135401021Y-67132477D01*
X135517827Y-66971707D01*
X135608045Y-66794645D01*
X135669453Y-66605649D01*
X135700540Y-66409374D01*
X135700540Y-66210652D01*
X135669453Y-66014377D01*
X135608045Y-65825381D01*
X135608045Y-65825380D01*
X135541638Y-65695050D01*
X135517827Y-65648319D01*
X135401021Y-65487549D01*
X135260504Y-65347032D01*
X135099734Y-65230226D01*
X134922672Y-65140007D01*
X134922669Y-65140006D01*
X134733677Y-65078600D01*
X134606214Y-65058412D01*
X134537401Y-65047513D01*
X133962679Y-65047513D01*
X133897254Y-65057875D01*
X133766402Y-65078600D01*
X133577410Y-65140006D01*
X133577407Y-65140007D01*
X133400345Y-65230226D01*
X133239573Y-65347034D01*
X133099061Y-65487546D01*
X132982253Y-65648318D01*
X132892034Y-65825380D01*
X132892033Y-65825383D01*
X132830627Y-66014375D01*
X132799540Y-66210652D01*
X110300540Y-66210652D01*
X110269453Y-66014377D01*
X110208045Y-65825381D01*
X110208045Y-65825380D01*
X110141638Y-65695051D01*
X110117827Y-65648319D01*
X110113830Y-65642818D01*
X110068160Y-65579957D01*
X110044680Y-65514151D01*
X110060506Y-65446097D01*
X110080793Y-65419395D01*
X118438729Y-57061460D01*
X118438733Y-57061458D01*
X118525858Y-56974333D01*
X118594311Y-56871886D01*
X118641463Y-56758052D01*
X118653481Y-56697629D01*
X118665500Y-56637207D01*
X118665500Y-56513993D01*
X118665500Y-53069594D01*
X132345800Y-53069594D01*
X132345800Y-56704006D01*
X132367222Y-56811707D01*
X132367223Y-56811710D01*
X132367222Y-56811710D01*
X132369835Y-56824847D01*
X132369837Y-56824853D01*
X132416985Y-56938680D01*
X132416987Y-56938683D01*
X132416988Y-56938686D01*
X132451215Y-56989909D01*
X132485442Y-57041133D01*
X132572567Y-57128258D01*
X132572570Y-57128260D01*
X132579854Y-57135544D01*
X133100616Y-57656306D01*
X133100645Y-57656337D01*
X133117776Y-57673468D01*
X133151261Y-57734791D01*
X133146277Y-57804483D01*
X133117778Y-57848828D01*
X133099061Y-57867545D01*
X133099055Y-57867552D01*
X132982255Y-58028315D01*
X132892034Y-58205380D01*
X132892033Y-58205383D01*
X132830627Y-58394375D01*
X132830627Y-58394377D01*
X132799540Y-58590652D01*
X132799540Y-58789374D01*
X132806024Y-58830310D01*
X132830627Y-58985650D01*
X132892033Y-59174642D01*
X132892034Y-59174645D01*
X132982253Y-59351707D01*
X133099059Y-59512477D01*
X133239576Y-59652994D01*
X133400346Y-59769800D01*
X133487189Y-59814048D01*
X133577407Y-59860018D01*
X133577410Y-59860019D01*
X133671906Y-59890722D01*
X133766404Y-59921426D01*
X133962679Y-59952513D01*
X133962680Y-59952513D01*
X134537400Y-59952513D01*
X134537401Y-59952513D01*
X134733676Y-59921426D01*
X134922672Y-59860018D01*
X134925044Y-59858808D01*
X134926802Y-59857914D01*
X134995471Y-59845016D01*
X135060212Y-59871290D01*
X135100471Y-59928396D01*
X135107100Y-59968397D01*
X135107100Y-61979638D01*
X135087415Y-62046677D01*
X135070781Y-62067319D01*
X135033138Y-62104961D01*
X135033135Y-62104965D01*
X134934590Y-62252446D01*
X134934583Y-62252459D01*
X134866706Y-62416332D01*
X134866703Y-62416341D01*
X134832100Y-62590304D01*
X134832100Y-62767695D01*
X134866703Y-62941658D01*
X134866706Y-62941667D01*
X134934583Y-63105540D01*
X134934590Y-63105553D01*
X135033135Y-63253034D01*
X135033138Y-63253038D01*
X135158561Y-63378461D01*
X135158565Y-63378464D01*
X135306046Y-63477009D01*
X135306059Y-63477016D01*
X135385426Y-63509890D01*
X135469934Y-63544894D01*
X135469936Y-63544894D01*
X135469941Y-63544896D01*
X135643904Y-63579499D01*
X135643907Y-63579500D01*
X135643909Y-63579500D01*
X135821293Y-63579500D01*
X135821294Y-63579499D01*
X135879282Y-63567964D01*
X135995258Y-63544896D01*
X135995261Y-63544894D01*
X135995266Y-63544894D01*
X136159147Y-63477013D01*
X136306635Y-63378464D01*
X136432064Y-63253035D01*
X136530613Y-63105547D01*
X136598494Y-62941666D01*
X136633100Y-62767691D01*
X136633100Y-62590309D01*
X136633100Y-62590306D01*
X136633099Y-62590304D01*
X136598496Y-62416341D01*
X136598493Y-62416332D01*
X136530616Y-62252459D01*
X136530609Y-62252446D01*
X136432064Y-62104965D01*
X136432061Y-62104961D01*
X136394419Y-62067319D01*
X136360934Y-62005996D01*
X136358100Y-61979638D01*
X136358100Y-59534452D01*
X136377785Y-59467413D01*
X136430589Y-59421658D01*
X136499747Y-59411714D01*
X136563303Y-59440739D01*
X136569781Y-59446771D01*
X137286138Y-60163128D01*
X137319623Y-60224451D01*
X137320930Y-60270206D01*
X137299500Y-60405512D01*
X137299500Y-60594486D01*
X137329059Y-60781118D01*
X137387454Y-60960836D01*
X137473240Y-61129199D01*
X137584310Y-61282073D01*
X137717927Y-61415690D01*
X137870801Y-61526760D01*
X137950347Y-61567290D01*
X138039163Y-61612545D01*
X138039165Y-61612545D01*
X138039168Y-61612547D01*
X138124155Y-61640161D01*
X138218881Y-61670940D01*
X138405514Y-61700500D01*
X138405519Y-61700500D01*
X138594486Y-61700500D01*
X138698168Y-61684077D01*
X138781118Y-61670940D01*
X138786276Y-61669263D01*
X138856115Y-61667264D01*
X138915950Y-61703340D01*
X138946782Y-61766039D01*
X138948600Y-61787192D01*
X138948600Y-62189538D01*
X138928915Y-62256577D01*
X138912281Y-62277219D01*
X138874638Y-62314861D01*
X138874635Y-62314865D01*
X138776090Y-62462346D01*
X138776083Y-62462359D01*
X138708206Y-62626232D01*
X138708203Y-62626241D01*
X138673600Y-62800204D01*
X138673600Y-62977595D01*
X138708203Y-63151558D01*
X138708206Y-63151567D01*
X138776083Y-63315440D01*
X138776090Y-63315453D01*
X138874635Y-63462934D01*
X138874638Y-63462938D01*
X139000061Y-63588361D01*
X139000065Y-63588364D01*
X139147546Y-63686909D01*
X139147559Y-63686916D01*
X139270463Y-63737823D01*
X139311434Y-63754794D01*
X139311436Y-63754794D01*
X139311441Y-63754796D01*
X139485404Y-63789399D01*
X139485407Y-63789400D01*
X139485409Y-63789400D01*
X139662793Y-63789400D01*
X139662794Y-63789399D01*
X139720782Y-63777864D01*
X139836758Y-63754796D01*
X139836761Y-63754794D01*
X139836766Y-63754794D01*
X140000647Y-63686913D01*
X140148135Y-63588364D01*
X140273564Y-63462935D01*
X140372113Y-63315447D01*
X140439994Y-63151566D01*
X140474600Y-62977591D01*
X140474600Y-62800209D01*
X140474600Y-62800206D01*
X140474599Y-62800204D01*
X140439996Y-62626241D01*
X140439993Y-62626232D01*
X140372116Y-62462359D01*
X140372109Y-62462346D01*
X140273564Y-62314865D01*
X140273561Y-62314861D01*
X140235919Y-62277219D01*
X140202434Y-62215896D01*
X140199600Y-62189538D01*
X140199600Y-57216952D01*
X140219285Y-57149913D01*
X140272089Y-57104158D01*
X140341247Y-57094214D01*
X140404803Y-57123239D01*
X140411281Y-57129271D01*
X147767863Y-64485855D01*
X147767867Y-64485858D01*
X147870310Y-64554309D01*
X147870311Y-64554309D01*
X147870315Y-64554312D01*
X147936997Y-64581932D01*
X147984148Y-64601463D01*
X148004197Y-64605451D01*
X148069224Y-64618385D01*
X148104992Y-64625501D01*
X148104994Y-64625501D01*
X148234321Y-64625501D01*
X148234341Y-64625500D01*
X148287372Y-64625500D01*
X148354411Y-64645185D01*
X148387687Y-64676611D01*
X148464310Y-64782073D01*
X148597927Y-64915690D01*
X148703387Y-64992311D01*
X148746051Y-65047640D01*
X148754500Y-65092628D01*
X148754500Y-68247011D01*
X148778535Y-68367844D01*
X148778540Y-68367861D01*
X148825685Y-68481680D01*
X148825687Y-68481683D01*
X148825688Y-68481686D01*
X148859915Y-68532909D01*
X148894142Y-68584133D01*
X148981267Y-68671258D01*
X148981270Y-68671260D01*
X148988554Y-68678544D01*
X151537716Y-71227706D01*
X151537745Y-71227737D01*
X151627961Y-71317953D01*
X151627964Y-71317955D01*
X151627967Y-71317958D01*
X151649330Y-71332232D01*
X151730414Y-71386412D01*
X151730419Y-71386414D01*
X151804090Y-71416929D01*
X151804094Y-71416930D01*
X151810907Y-71419752D01*
X151844248Y-71433563D01*
X151904671Y-71445581D01*
X151965093Y-71457600D01*
X154985007Y-71457600D01*
X155045429Y-71445581D01*
X155105852Y-71433563D01*
X155139192Y-71419752D01*
X155219686Y-71386412D01*
X155300770Y-71332232D01*
X155322133Y-71317958D01*
X155409258Y-71230833D01*
X155409259Y-71230830D01*
X156062058Y-70578033D01*
X156130512Y-70475585D01*
X156177663Y-70361751D01*
X156201701Y-70240906D01*
X156201701Y-70117693D01*
X156201701Y-70112583D01*
X156201700Y-70112557D01*
X156201700Y-64433713D01*
X163149500Y-64433713D01*
X163149500Y-64646286D01*
X163177419Y-64822563D01*
X163182754Y-64856243D01*
X163242086Y-65038848D01*
X163248444Y-65058414D01*
X163344951Y-65247820D01*
X163469890Y-65419786D01*
X163620213Y-65570109D01*
X163792182Y-65695050D01*
X163800946Y-65699516D01*
X163851742Y-65747491D01*
X163868536Y-65815312D01*
X163845998Y-65881447D01*
X163800946Y-65920484D01*
X163792182Y-65924949D01*
X163620213Y-66049890D01*
X163469890Y-66200213D01*
X163344951Y-66372179D01*
X163248444Y-66561585D01*
X163182753Y-66763760D01*
X163149500Y-66973713D01*
X163149500Y-67186286D01*
X163181733Y-67389800D01*
X163182754Y-67396243D01*
X163209974Y-67480018D01*
X163248444Y-67598414D01*
X163344951Y-67787820D01*
X163469890Y-67959786D01*
X163620213Y-68110109D01*
X163792179Y-68235048D01*
X163792181Y-68235049D01*
X163792184Y-68235051D01*
X163981588Y-68331557D01*
X164183757Y-68397246D01*
X164393713Y-68430500D01*
X164393714Y-68430500D01*
X164606286Y-68430500D01*
X164606287Y-68430500D01*
X164816243Y-68397246D01*
X165018412Y-68331557D01*
X165207816Y-68235051D01*
X165269568Y-68190186D01*
X165379786Y-68110109D01*
X165379788Y-68110106D01*
X165379792Y-68110104D01*
X165530104Y-67959792D01*
X165530106Y-67959788D01*
X165530109Y-67959786D01*
X165655048Y-67787820D01*
X165655047Y-67787820D01*
X165655051Y-67787816D01*
X165751557Y-67598412D01*
X165817246Y-67396243D01*
X165850500Y-67186287D01*
X165850500Y-66973713D01*
X165817246Y-66763757D01*
X165751557Y-66561588D01*
X165655051Y-66372184D01*
X165655049Y-66372181D01*
X165655048Y-66372179D01*
X165530109Y-66200213D01*
X165379786Y-66049890D01*
X165207820Y-65924951D01*
X165207115Y-65924591D01*
X165199054Y-65920485D01*
X165148259Y-65872512D01*
X165131463Y-65804692D01*
X165153999Y-65738556D01*
X165199054Y-65699515D01*
X165207816Y-65695051D01*
X165272143Y-65648315D01*
X165379786Y-65570109D01*
X165379788Y-65570106D01*
X165379792Y-65570104D01*
X165530104Y-65419792D01*
X165530106Y-65419788D01*
X165530109Y-65419786D01*
X165655048Y-65247820D01*
X165655047Y-65247820D01*
X165655051Y-65247816D01*
X165751557Y-65058412D01*
X165817246Y-64856243D01*
X165850500Y-64646287D01*
X165850500Y-64433713D01*
X171149500Y-64433713D01*
X171149500Y-64646286D01*
X171177419Y-64822563D01*
X171182754Y-64856243D01*
X171242086Y-65038848D01*
X171248444Y-65058414D01*
X171344951Y-65247820D01*
X171469890Y-65419786D01*
X171620213Y-65570109D01*
X171792182Y-65695050D01*
X171800946Y-65699516D01*
X171851742Y-65747491D01*
X171868536Y-65815312D01*
X171845998Y-65881447D01*
X171800946Y-65920484D01*
X171792182Y-65924949D01*
X171620213Y-66049890D01*
X171469890Y-66200213D01*
X171344951Y-66372179D01*
X171248444Y-66561585D01*
X171182753Y-66763760D01*
X171149500Y-66973713D01*
X171149500Y-67186286D01*
X171181733Y-67389800D01*
X171182754Y-67396243D01*
X171209974Y-67480018D01*
X171248444Y-67598414D01*
X171344951Y-67787820D01*
X171469890Y-67959786D01*
X171620213Y-68110109D01*
X171792179Y-68235048D01*
X171792181Y-68235049D01*
X171792184Y-68235051D01*
X171981588Y-68331557D01*
X172183757Y-68397246D01*
X172393713Y-68430500D01*
X172393714Y-68430500D01*
X172606286Y-68430500D01*
X172606287Y-68430500D01*
X172816243Y-68397246D01*
X173018412Y-68331557D01*
X173207816Y-68235051D01*
X173269568Y-68190186D01*
X173379786Y-68110109D01*
X173379788Y-68110106D01*
X173379792Y-68110104D01*
X173530104Y-67959792D01*
X173530106Y-67959788D01*
X173530109Y-67959786D01*
X173655048Y-67787820D01*
X173655047Y-67787820D01*
X173655051Y-67787816D01*
X173751557Y-67598412D01*
X173817246Y-67396243D01*
X173850500Y-67186287D01*
X173850500Y-66973713D01*
X173817246Y-66763757D01*
X173751557Y-66561588D01*
X173655051Y-66372184D01*
X173655049Y-66372181D01*
X173655048Y-66372179D01*
X173530109Y-66200213D01*
X173379786Y-66049890D01*
X173207820Y-65924951D01*
X173207115Y-65924591D01*
X173199054Y-65920485D01*
X173148259Y-65872512D01*
X173131463Y-65804692D01*
X173153999Y-65738556D01*
X173199054Y-65699515D01*
X173207816Y-65695051D01*
X173272143Y-65648315D01*
X173379786Y-65570109D01*
X173379788Y-65570106D01*
X173379792Y-65570104D01*
X173530104Y-65419792D01*
X173530106Y-65419788D01*
X173530109Y-65419786D01*
X173655048Y-65247820D01*
X173655047Y-65247820D01*
X173655051Y-65247816D01*
X173751557Y-65058412D01*
X173817246Y-64856243D01*
X173850500Y-64646287D01*
X173850500Y-64433713D01*
X173817246Y-64223757D01*
X173751557Y-64021588D01*
X173655051Y-63832184D01*
X173655049Y-63832181D01*
X173655048Y-63832179D01*
X173530109Y-63660213D01*
X173379786Y-63509890D01*
X173207820Y-63384951D01*
X173018414Y-63288444D01*
X173018413Y-63288443D01*
X173018412Y-63288443D01*
X172816243Y-63222754D01*
X172816241Y-63222753D01*
X172816240Y-63222753D01*
X172654957Y-63197208D01*
X172606287Y-63189500D01*
X172393713Y-63189500D01*
X172345042Y-63197208D01*
X172183760Y-63222753D01*
X171981585Y-63288444D01*
X171792179Y-63384951D01*
X171620213Y-63509890D01*
X171469890Y-63660213D01*
X171344951Y-63832179D01*
X171248444Y-64021585D01*
X171182753Y-64223760D01*
X171149500Y-64433713D01*
X165850500Y-64433713D01*
X165817246Y-64223757D01*
X165751557Y-64021588D01*
X165655051Y-63832184D01*
X165655049Y-63832181D01*
X165655048Y-63832179D01*
X165530109Y-63660213D01*
X165379786Y-63509890D01*
X165207820Y-63384951D01*
X165018414Y-63288444D01*
X165018413Y-63288443D01*
X165018412Y-63288443D01*
X164816243Y-63222754D01*
X164816241Y-63222753D01*
X164816240Y-63222753D01*
X164654957Y-63197208D01*
X164606287Y-63189500D01*
X164393713Y-63189500D01*
X164345042Y-63197208D01*
X164183760Y-63222753D01*
X163981585Y-63288444D01*
X163792179Y-63384951D01*
X163620213Y-63509890D01*
X163469890Y-63660213D01*
X163344951Y-63832179D01*
X163248444Y-64021585D01*
X163182753Y-64223760D01*
X163149500Y-64433713D01*
X156201700Y-64433713D01*
X156201700Y-60234251D01*
X156221385Y-60167212D01*
X156238015Y-60146574D01*
X156669690Y-59714898D01*
X156731011Y-59681415D01*
X156776767Y-59680108D01*
X156905514Y-59700500D01*
X156905519Y-59700500D01*
X157094486Y-59700500D01*
X157281118Y-59670940D01*
X157285070Y-59669656D01*
X157460832Y-59612547D01*
X157629199Y-59526760D01*
X157782073Y-59415690D01*
X157915690Y-59282073D01*
X158026760Y-59129199D01*
X158112547Y-58960832D01*
X158170940Y-58781118D01*
X158172861Y-58768987D01*
X158200500Y-58594486D01*
X158200500Y-58405513D01*
X158170940Y-58218881D01*
X158112545Y-58039163D01*
X158026759Y-57870800D01*
X158024394Y-57867545D01*
X157915690Y-57717927D01*
X157782073Y-57584310D01*
X157629199Y-57473240D01*
X157627607Y-57472429D01*
X157460836Y-57387454D01*
X157281118Y-57329059D01*
X157094486Y-57299500D01*
X157094481Y-57299500D01*
X156905519Y-57299500D01*
X156905514Y-57299500D01*
X156718881Y-57329059D01*
X156539163Y-57387454D01*
X156370800Y-57473240D01*
X156283579Y-57536610D01*
X156217927Y-57584310D01*
X156217925Y-57584312D01*
X156217924Y-57584312D01*
X156084312Y-57717924D01*
X156084312Y-57717925D01*
X156084310Y-57717927D01*
X156055016Y-57758247D01*
X155973240Y-57870800D01*
X155887454Y-58039163D01*
X155829059Y-58218881D01*
X155799500Y-58405513D01*
X155799500Y-58594486D01*
X155819891Y-58723230D01*
X155810936Y-58792524D01*
X155785099Y-58830309D01*
X155177470Y-59437939D01*
X155090344Y-59525064D01*
X155090338Y-59525072D01*
X155021890Y-59627508D01*
X155021889Y-59627510D01*
X154991656Y-59700499D01*
X154991657Y-59700500D01*
X154974736Y-59741349D01*
X154974735Y-59741355D01*
X154950700Y-59862189D01*
X154950700Y-69868847D01*
X154931015Y-69935886D01*
X154914381Y-69956528D01*
X154700629Y-70170281D01*
X154639306Y-70203766D01*
X154612948Y-70206600D01*
X153724500Y-70206600D01*
X153657461Y-70186915D01*
X153611706Y-70134111D01*
X153600500Y-70082600D01*
X153600499Y-68824998D01*
X153600498Y-68824981D01*
X153589999Y-68722203D01*
X153589998Y-68722200D01*
X153573117Y-68671258D01*
X153534814Y-68555666D01*
X153442712Y-68406344D01*
X153318656Y-68282288D01*
X153184402Y-68199480D01*
X153137679Y-68147533D01*
X153125500Y-68093942D01*
X153125500Y-61558393D01*
X153125499Y-61558389D01*
X153101464Y-61437555D01*
X153101463Y-61437548D01*
X153063020Y-61344739D01*
X153054312Y-61323716D01*
X153054307Y-61323707D01*
X152985858Y-61221267D01*
X152985855Y-61221263D01*
X152895637Y-61131045D01*
X152895606Y-61131016D01*
X150594900Y-58830310D01*
X150561415Y-58768987D01*
X150560108Y-58723230D01*
X150580500Y-58594485D01*
X150580500Y-58405513D01*
X150550940Y-58218881D01*
X150492545Y-58039163D01*
X150406759Y-57870800D01*
X150404394Y-57867545D01*
X150295690Y-57717927D01*
X150162073Y-57584310D01*
X150098574Y-57538175D01*
X150056614Y-57507689D01*
X150013949Y-57452358D01*
X150005500Y-57407371D01*
X150005500Y-54333713D01*
X171149500Y-54333713D01*
X171149500Y-54546286D01*
X171176836Y-54718882D01*
X171182754Y-54756243D01*
X171243280Y-54942523D01*
X171248444Y-54958414D01*
X171344951Y-55147820D01*
X171469890Y-55319786D01*
X171620213Y-55470109D01*
X171792179Y-55595048D01*
X171792181Y-55595049D01*
X171792184Y-55595051D01*
X171981588Y-55691557D01*
X172183757Y-55757246D01*
X172393713Y-55790500D01*
X172393714Y-55790500D01*
X172606286Y-55790500D01*
X172606287Y-55790500D01*
X172816243Y-55757246D01*
X173018412Y-55691557D01*
X173207816Y-55595051D01*
X173229789Y-55579086D01*
X173379786Y-55470109D01*
X173379788Y-55470106D01*
X173379792Y-55470104D01*
X173530104Y-55319792D01*
X173530106Y-55319788D01*
X173530109Y-55319786D01*
X173655048Y-55147820D01*
X173655047Y-55147820D01*
X173655051Y-55147816D01*
X173751557Y-54958412D01*
X173817246Y-54756243D01*
X173850500Y-54546287D01*
X173850500Y-54333713D01*
X173817246Y-54123757D01*
X173751557Y-53921588D01*
X173655051Y-53732184D01*
X173655049Y-53732181D01*
X173655048Y-53732179D01*
X173530109Y-53560213D01*
X173379786Y-53409890D01*
X173207820Y-53284951D01*
X173018414Y-53188444D01*
X173018413Y-53188443D01*
X173018412Y-53188443D01*
X172816243Y-53122754D01*
X172816241Y-53122753D01*
X172816240Y-53122753D01*
X172654957Y-53097208D01*
X172606287Y-53089500D01*
X172393713Y-53089500D01*
X172345042Y-53097208D01*
X172183760Y-53122753D01*
X171981585Y-53188444D01*
X171792179Y-53284951D01*
X171620213Y-53409890D01*
X171469890Y-53560213D01*
X171344951Y-53732179D01*
X171248444Y-53921585D01*
X171182753Y-54123760D01*
X171149500Y-54333713D01*
X150005500Y-54333713D01*
X150005500Y-42310451D01*
X150025185Y-42243412D01*
X150041814Y-42222775D01*
X150630876Y-41633713D01*
X171149500Y-41633713D01*
X171149500Y-41846286D01*
X171178843Y-42031555D01*
X171182754Y-42056243D01*
X171243569Y-42243412D01*
X171248444Y-42258414D01*
X171344951Y-42447820D01*
X171469890Y-42619786D01*
X171620213Y-42770109D01*
X171792179Y-42895048D01*
X171792181Y-42895049D01*
X171792184Y-42895051D01*
X171981588Y-42991557D01*
X172183757Y-43057246D01*
X172393713Y-43090500D01*
X172393714Y-43090500D01*
X172606286Y-43090500D01*
X172606287Y-43090500D01*
X172816243Y-43057246D01*
X173018412Y-42991557D01*
X173207816Y-42895051D01*
X173229789Y-42879086D01*
X173379786Y-42770109D01*
X173379788Y-42770106D01*
X173379792Y-42770104D01*
X173530104Y-42619792D01*
X173530106Y-42619788D01*
X173530109Y-42619786D01*
X173655048Y-42447820D01*
X173655047Y-42447820D01*
X173655051Y-42447816D01*
X173751557Y-42258412D01*
X173817246Y-42056243D01*
X173850500Y-41846287D01*
X173850500Y-41633713D01*
X173817246Y-41423757D01*
X173751557Y-41221588D01*
X173655051Y-41032184D01*
X173655049Y-41032181D01*
X173655048Y-41032179D01*
X173530109Y-40860213D01*
X173379786Y-40709890D01*
X173207820Y-40584951D01*
X173018414Y-40488444D01*
X173018413Y-40488443D01*
X173018412Y-40488443D01*
X172816243Y-40422754D01*
X172816241Y-40422753D01*
X172816240Y-40422753D01*
X172654957Y-40397208D01*
X172606287Y-40389500D01*
X172393713Y-40389500D01*
X172345042Y-40397208D01*
X172183760Y-40422753D01*
X171981585Y-40488444D01*
X171792179Y-40584951D01*
X171620213Y-40709890D01*
X171469890Y-40860213D01*
X171344951Y-41032179D01*
X171248444Y-41221585D01*
X171182753Y-41423760D01*
X171149500Y-41633713D01*
X150630876Y-41633713D01*
X151722162Y-40542426D01*
X151783483Y-40508943D01*
X151848162Y-40512179D01*
X151863757Y-40517246D01*
X152073713Y-40550500D01*
X152073714Y-40550500D01*
X152286286Y-40550500D01*
X152286287Y-40550500D01*
X152496243Y-40517246D01*
X152698412Y-40451557D01*
X152887816Y-40355051D01*
X153016462Y-40261585D01*
X153059786Y-40230109D01*
X153059788Y-40230106D01*
X153059792Y-40230104D01*
X153210104Y-40079792D01*
X153210106Y-40079788D01*
X153210109Y-40079786D01*
X153335048Y-39907820D01*
X153335047Y-39907820D01*
X153335051Y-39907816D01*
X153431557Y-39718412D01*
X153497246Y-39516243D01*
X153530500Y-39306287D01*
X153530500Y-39093713D01*
X153497246Y-38883757D01*
X153431557Y-38681588D01*
X153335051Y-38492184D01*
X153335049Y-38492181D01*
X153335048Y-38492179D01*
X153210109Y-38320213D01*
X153059786Y-38169890D01*
X152887820Y-38044951D01*
X152698414Y-37948444D01*
X152698413Y-37948443D01*
X152698412Y-37948443D01*
X152496243Y-37882754D01*
X152496241Y-37882753D01*
X152496240Y-37882753D01*
X152334957Y-37857208D01*
X152286287Y-37849500D01*
X152073713Y-37849500D01*
X152025042Y-37857208D01*
X151863760Y-37882753D01*
X151661585Y-37948444D01*
X151472179Y-38044951D01*
X151300213Y-38169890D01*
X151149890Y-38320213D01*
X151024951Y-38492179D01*
X150928444Y-38681585D01*
X150862753Y-38883760D01*
X150829500Y-39093713D01*
X150829500Y-39306286D01*
X150862753Y-39516241D01*
X150862754Y-39516243D01*
X150867070Y-39529528D01*
X150867821Y-39531837D01*
X150869816Y-39601678D01*
X150837571Y-39657837D01*
X149881034Y-40614375D01*
X148981270Y-41514139D01*
X148981267Y-41514142D01*
X148954249Y-41541160D01*
X148894142Y-41601266D01*
X148869708Y-41637834D01*
X148869701Y-41637845D01*
X148867287Y-41641459D01*
X148825688Y-41703714D01*
X148811701Y-41737483D01*
X148808711Y-41744700D01*
X148808710Y-41744703D01*
X148778538Y-41817545D01*
X148778535Y-41817555D01*
X148754500Y-41938389D01*
X148754500Y-57407371D01*
X148734815Y-57474410D01*
X148703386Y-57507689D01*
X148597925Y-57584311D01*
X148464312Y-57717924D01*
X148464312Y-57717925D01*
X148464310Y-57717927D01*
X148435016Y-57758247D01*
X148353240Y-57870800D01*
X148267454Y-58039163D01*
X148209059Y-58218881D01*
X148179500Y-58405513D01*
X148179500Y-58594486D01*
X148209059Y-58781118D01*
X148267454Y-58960836D01*
X148353240Y-59129199D01*
X148464310Y-59282073D01*
X148597927Y-59415690D01*
X148750801Y-59526760D01*
X148830347Y-59567290D01*
X148919163Y-59612545D01*
X148919165Y-59612545D01*
X148919168Y-59612547D01*
X149015497Y-59643846D01*
X149098881Y-59670940D01*
X149285514Y-59700500D01*
X149285519Y-59700500D01*
X149474485Y-59700500D01*
X149550788Y-59688414D01*
X149603231Y-59680108D01*
X149672524Y-59689062D01*
X149710310Y-59714900D01*
X151838181Y-61842771D01*
X151871666Y-61904094D01*
X151874500Y-61930452D01*
X151874500Y-68093942D01*
X151854815Y-68160981D01*
X151815598Y-68199479D01*
X151729209Y-68252764D01*
X151681342Y-68282289D01*
X151557289Y-68406342D01*
X151465187Y-68555663D01*
X151465186Y-68555666D01*
X151410001Y-68722203D01*
X151410001Y-68722204D01*
X151410000Y-68722204D01*
X151399500Y-68824983D01*
X151399500Y-69020948D01*
X151379815Y-69087987D01*
X151327011Y-69133742D01*
X151257853Y-69143686D01*
X151194297Y-69114661D01*
X151187819Y-69108629D01*
X150041819Y-67962629D01*
X150008334Y-67901306D01*
X150005500Y-67874948D01*
X150005500Y-65092628D01*
X150025185Y-65025589D01*
X150056611Y-64992312D01*
X150162073Y-64915690D01*
X150295690Y-64782073D01*
X150406760Y-64629199D01*
X150492547Y-64460832D01*
X150550940Y-64281118D01*
X150580500Y-64094486D01*
X150580500Y-63905513D01*
X150550940Y-63718881D01*
X150494408Y-63544896D01*
X150492547Y-63539168D01*
X150492545Y-63539165D01*
X150492545Y-63539163D01*
X150447290Y-63450347D01*
X150406760Y-63370801D01*
X150295690Y-63217927D01*
X150162073Y-63084310D01*
X150009199Y-62973240D01*
X149840836Y-62887454D01*
X149661118Y-62829059D01*
X149474486Y-62799500D01*
X149474481Y-62799500D01*
X149285519Y-62799500D01*
X149285514Y-62799500D01*
X149098881Y-62829059D01*
X148919163Y-62887454D01*
X148750800Y-62973240D01*
X148663579Y-63036610D01*
X148597927Y-63084310D01*
X148597925Y-63084312D01*
X148597924Y-63084312D01*
X148464309Y-63217927D01*
X148461511Y-63221204D01*
X148403003Y-63259396D01*
X148333135Y-63259892D01*
X148279542Y-63228351D01*
X147543704Y-62492513D01*
X146752673Y-61701483D01*
X146719189Y-61640161D01*
X146724173Y-61570469D01*
X146766045Y-61514536D01*
X146767470Y-61513485D01*
X146902073Y-61415690D01*
X147035690Y-61282073D01*
X147146760Y-61129199D01*
X147232547Y-60960832D01*
X147290940Y-60781118D01*
X147296600Y-60745380D01*
X147320500Y-60594486D01*
X147320500Y-60405513D01*
X147290940Y-60218881D01*
X147232545Y-60039163D01*
X147176106Y-59928396D01*
X147146760Y-59870801D01*
X147035690Y-59717927D01*
X146902073Y-59584310D01*
X146749199Y-59473240D01*
X146737763Y-59467413D01*
X146580836Y-59387454D01*
X146401118Y-59329059D01*
X146214486Y-59299500D01*
X146214481Y-59299500D01*
X146025519Y-59299500D01*
X146025514Y-59299500D01*
X145896768Y-59319891D01*
X145827474Y-59310936D01*
X145789689Y-59285099D01*
X141988519Y-55483929D01*
X141955034Y-55422606D01*
X141952200Y-55396248D01*
X141952200Y-54905513D01*
X144919500Y-54905513D01*
X144919500Y-55094486D01*
X144949059Y-55281118D01*
X145007454Y-55460836D01*
X145075839Y-55595048D01*
X145093240Y-55629199D01*
X145204310Y-55782073D01*
X145337927Y-55915690D01*
X145490801Y-56026760D01*
X145537692Y-56050652D01*
X145659163Y-56112545D01*
X145659165Y-56112545D01*
X145659168Y-56112547D01*
X145755497Y-56143846D01*
X145838881Y-56170940D01*
X146025514Y-56200500D01*
X146025519Y-56200500D01*
X146214486Y-56200500D01*
X146401118Y-56170940D01*
X146405070Y-56169656D01*
X146580832Y-56112547D01*
X146749199Y-56026760D01*
X146902073Y-55915690D01*
X147035690Y-55782073D01*
X147146760Y-55629199D01*
X147232547Y-55460832D01*
X147290940Y-55281118D01*
X147320500Y-55094486D01*
X147320500Y-54905513D01*
X147290940Y-54718881D01*
X147234860Y-54546287D01*
X147232547Y-54539168D01*
X147232545Y-54539165D01*
X147232545Y-54539163D01*
X147146759Y-54370800D01*
X147035690Y-54217927D01*
X146902073Y-54084310D01*
X146749199Y-53973240D01*
X146580836Y-53887454D01*
X146401118Y-53829059D01*
X146214486Y-53799500D01*
X146214481Y-53799500D01*
X146025519Y-53799500D01*
X146025514Y-53799500D01*
X145838881Y-53829059D01*
X145659163Y-53887454D01*
X145490800Y-53973240D01*
X145443386Y-54007689D01*
X145337927Y-54084310D01*
X145337925Y-54084312D01*
X145337924Y-54084312D01*
X145204312Y-54217924D01*
X145204312Y-54217925D01*
X145204310Y-54217927D01*
X145198944Y-54225313D01*
X145093240Y-54370800D01*
X145007454Y-54539163D01*
X144949059Y-54718881D01*
X144919500Y-54905513D01*
X141952200Y-54905513D01*
X141952200Y-49405513D01*
X144919500Y-49405513D01*
X144919500Y-49594486D01*
X144949059Y-49781118D01*
X145007454Y-49960836D01*
X145081945Y-50107032D01*
X145093240Y-50129199D01*
X145204310Y-50282073D01*
X145337927Y-50415690D01*
X145490801Y-50526760D01*
X145570347Y-50567290D01*
X145659163Y-50612545D01*
X145659165Y-50612545D01*
X145659168Y-50612547D01*
X145755497Y-50643846D01*
X145838881Y-50670940D01*
X146025514Y-50700500D01*
X146025519Y-50700500D01*
X146214486Y-50700500D01*
X146401118Y-50670940D01*
X146580832Y-50612547D01*
X146749199Y-50526760D01*
X146902073Y-50415690D01*
X147035690Y-50282073D01*
X147146760Y-50129199D01*
X147232547Y-49960832D01*
X147290940Y-49781118D01*
X147290966Y-49780952D01*
X147320500Y-49594486D01*
X147320500Y-49405513D01*
X147290940Y-49218881D01*
X147263846Y-49135497D01*
X147232547Y-49039168D01*
X147232545Y-49039165D01*
X147232545Y-49039163D01*
X147146759Y-48870800D01*
X147035690Y-48717927D01*
X146902073Y-48584310D01*
X146749199Y-48473240D01*
X146580836Y-48387454D01*
X146401118Y-48329059D01*
X146214486Y-48299500D01*
X146214481Y-48299500D01*
X146025519Y-48299500D01*
X146025514Y-48299500D01*
X145838881Y-48329059D01*
X145659163Y-48387454D01*
X145490800Y-48473240D01*
X145403579Y-48536610D01*
X145337927Y-48584310D01*
X145337925Y-48584312D01*
X145337924Y-48584312D01*
X145204312Y-48717924D01*
X145204312Y-48717925D01*
X145204310Y-48717927D01*
X145198944Y-48725313D01*
X145093240Y-48870800D01*
X145007454Y-49039163D01*
X144949059Y-49218881D01*
X144919500Y-49405513D01*
X141952200Y-49405513D01*
X141952200Y-45897648D01*
X144199500Y-45897648D01*
X144199500Y-46102351D01*
X144231522Y-46304534D01*
X144294781Y-46499223D01*
X144387715Y-46681613D01*
X144508028Y-46847213D01*
X144652786Y-46991971D01*
X144759911Y-47069800D01*
X144818390Y-47112287D01*
X144934607Y-47171503D01*
X145000776Y-47205218D01*
X145000778Y-47205218D01*
X145000781Y-47205220D01*
X145105137Y-47239127D01*
X145195465Y-47268477D01*
X145286004Y-47282817D01*
X145397648Y-47300500D01*
X145397649Y-47300500D01*
X145602351Y-47300500D01*
X145602352Y-47300500D01*
X145804534Y-47268477D01*
X145999219Y-47205220D01*
X146181610Y-47112287D01*
X146274590Y-47044732D01*
X146347213Y-46991971D01*
X146347215Y-46991968D01*
X146347219Y-46991966D01*
X146491966Y-46847219D01*
X146491968Y-46847215D01*
X146491971Y-46847213D01*
X146544732Y-46774590D01*
X146612287Y-46681610D01*
X146705220Y-46499219D01*
X146768477Y-46304534D01*
X146800500Y-46102352D01*
X146800500Y-45897648D01*
X146768477Y-45695466D01*
X146705220Y-45500781D01*
X146705218Y-45500778D01*
X146705218Y-45500776D01*
X146671503Y-45434607D01*
X146612287Y-45318390D01*
X146604556Y-45307749D01*
X146491971Y-45152786D01*
X146347213Y-45008028D01*
X146181613Y-44887715D01*
X146181612Y-44887714D01*
X146181610Y-44887713D01*
X146099699Y-44845977D01*
X145999223Y-44794781D01*
X145804534Y-44731522D01*
X145615320Y-44701554D01*
X145602352Y-44699500D01*
X145397648Y-44699500D01*
X145384680Y-44701554D01*
X145195465Y-44731522D01*
X145000776Y-44794781D01*
X144818386Y-44887715D01*
X144652786Y-45008028D01*
X144508028Y-45152786D01*
X144387715Y-45318386D01*
X144294781Y-45500776D01*
X144231522Y-45695465D01*
X144199500Y-45897648D01*
X141952200Y-45897648D01*
X141952200Y-34091793D01*
X141952199Y-34091789D01*
X141928163Y-33970948D01*
X141895811Y-33892843D01*
X141881012Y-33857114D01*
X141846784Y-33805890D01*
X141812558Y-33754667D01*
X141812556Y-33754664D01*
X141722337Y-33664445D01*
X141722306Y-33664416D01*
X141203493Y-33145603D01*
X141170008Y-33084280D01*
X141174992Y-33014588D01*
X141216864Y-32958655D01*
X141234948Y-32948784D01*
X141234546Y-32948047D01*
X141242326Y-32943797D01*
X141242331Y-32943796D01*
X141357546Y-32857546D01*
X141443796Y-32742331D01*
X141494091Y-32607483D01*
X141500500Y-32547873D01*
X141500499Y-30452128D01*
X141494091Y-30392517D01*
X141446672Y-30265381D01*
X141443797Y-30257671D01*
X141443793Y-30257664D01*
X141357547Y-30142455D01*
X141357544Y-30142452D01*
X141242335Y-30056206D01*
X141242328Y-30056202D01*
X141107482Y-30005908D01*
X141107483Y-30005908D01*
X141047883Y-29999501D01*
X141047881Y-29999500D01*
X141047873Y-29999500D01*
X141047864Y-29999500D01*
X138952129Y-29999500D01*
X138952123Y-29999501D01*
X138892516Y-30005908D01*
X138757671Y-30056202D01*
X138757664Y-30056206D01*
X138642455Y-30142452D01*
X138642452Y-30142455D01*
X138556206Y-30257664D01*
X138556202Y-30257671D01*
X138505908Y-30392517D01*
X138499501Y-30452116D01*
X138499501Y-30452123D01*
X138499500Y-30452135D01*
X138499500Y-32547870D01*
X138499501Y-32547876D01*
X138505908Y-32607483D01*
X138556202Y-32742328D01*
X138556206Y-32742335D01*
X138642452Y-32857544D01*
X138642455Y-32857547D01*
X138757664Y-32943793D01*
X138757671Y-32943797D01*
X138797508Y-32958655D01*
X138892517Y-32994091D01*
X138952127Y-33000500D01*
X139312098Y-33000499D01*
X139325039Y-33004298D01*
X139338492Y-33003341D01*
X139357905Y-33013948D01*
X139379137Y-33020183D01*
X139389303Y-33031105D01*
X139399805Y-33036844D01*
X139412922Y-33056481D01*
X139420948Y-33065104D01*
X139424123Y-33070923D01*
X139445688Y-33122986D01*
X139479915Y-33174209D01*
X139483007Y-33178836D01*
X139514141Y-33225433D01*
X139605586Y-33316878D01*
X139605608Y-33316898D01*
X140664881Y-34376171D01*
X140698366Y-34437494D01*
X140701200Y-34463852D01*
X140701200Y-43778347D01*
X140681515Y-43845386D01*
X140628711Y-43891141D01*
X140559553Y-43901085D01*
X140495997Y-43872060D01*
X140489519Y-43866028D01*
X137238219Y-40614728D01*
X137204734Y-40553405D01*
X137201900Y-40527047D01*
X137201900Y-36337293D01*
X137201899Y-36337289D01*
X137177864Y-36216455D01*
X137177863Y-36216448D01*
X137130711Y-36102614D01*
X137130710Y-36102613D01*
X137130707Y-36102607D01*
X137062258Y-36000167D01*
X137062255Y-36000163D01*
X136972037Y-35909945D01*
X136972006Y-35909916D01*
X135375475Y-34313385D01*
X135341990Y-34252062D01*
X135346974Y-34182370D01*
X135375475Y-34138023D01*
X135401021Y-34112477D01*
X135517827Y-33951707D01*
X135608045Y-33774645D01*
X135669453Y-33585649D01*
X135700540Y-33389374D01*
X135700540Y-33190652D01*
X135669453Y-32994377D01*
X135608045Y-32805381D01*
X135608045Y-32805380D01*
X135517826Y-32628318D01*
X135401021Y-32467549D01*
X135260504Y-32327032D01*
X135099734Y-32210226D01*
X134943258Y-32130497D01*
X134892463Y-32082523D01*
X134875668Y-32014702D01*
X134898205Y-31948567D01*
X134943258Y-31909528D01*
X135099734Y-31829800D01*
X135260504Y-31712994D01*
X135401021Y-31572477D01*
X135517827Y-31411707D01*
X135608045Y-31234645D01*
X135669453Y-31045649D01*
X135700540Y-30849374D01*
X135700540Y-30650652D01*
X135669453Y-30454377D01*
X135608045Y-30265381D01*
X135608045Y-30265380D01*
X135517826Y-30088318D01*
X135401021Y-29927549D01*
X135260504Y-29787032D01*
X135099734Y-29670226D01*
X134922672Y-29580007D01*
X134922669Y-29580006D01*
X134733677Y-29518600D01*
X134635538Y-29503056D01*
X134537401Y-29487513D01*
X133962679Y-29487513D01*
X133897254Y-29497875D01*
X133766402Y-29518600D01*
X133577410Y-29580006D01*
X133577407Y-29580007D01*
X133400345Y-29670226D01*
X133239573Y-29787034D01*
X133099061Y-29927546D01*
X132982253Y-30088318D01*
X132892034Y-30265380D01*
X132892033Y-30265383D01*
X132830627Y-30454375D01*
X132799540Y-30650652D01*
X132799540Y-30849373D01*
X132830627Y-31045650D01*
X132892033Y-31234642D01*
X132892034Y-31234645D01*
X132982253Y-31411707D01*
X133099059Y-31572477D01*
X133239576Y-31712994D01*
X133400346Y-31829800D01*
X133518872Y-31890192D01*
X133556820Y-31909528D01*
X133607616Y-31957503D01*
X133624411Y-32025324D01*
X133601873Y-32091459D01*
X133556820Y-32130498D01*
X133400345Y-32210226D01*
X133239573Y-32327034D01*
X133099061Y-32467546D01*
X132982253Y-32628318D01*
X132892034Y-32805380D01*
X132892033Y-32805383D01*
X132830627Y-32994375D01*
X132799540Y-33190652D01*
X132799540Y-33389373D01*
X132830627Y-33585650D01*
X132892033Y-33774642D01*
X132892034Y-33774645D01*
X132982253Y-33951707D01*
X133099059Y-34112477D01*
X133239576Y-34252994D01*
X133400346Y-34369800D01*
X133518872Y-34430192D01*
X133556820Y-34449528D01*
X133607616Y-34497503D01*
X133624411Y-34565324D01*
X133601873Y-34631459D01*
X133556820Y-34670498D01*
X133400345Y-34750226D01*
X133239573Y-34867034D01*
X133099061Y-35007546D01*
X132982253Y-35168318D01*
X132892034Y-35345380D01*
X132892033Y-35345383D01*
X132830627Y-35534375D01*
X132799540Y-35730652D01*
X132799540Y-35929373D01*
X132830627Y-36125650D01*
X132892033Y-36314642D01*
X132892034Y-36314645D01*
X132943802Y-36416243D01*
X132982253Y-36491707D01*
X133099059Y-36652477D01*
X133239576Y-36792994D01*
X133400346Y-36909800D01*
X133518872Y-36970192D01*
X133556820Y-36989528D01*
X133607616Y-37037503D01*
X133624411Y-37105324D01*
X133601873Y-37171459D01*
X133556820Y-37210498D01*
X133400345Y-37290226D01*
X133239573Y-37407034D01*
X133099061Y-37547546D01*
X132982253Y-37708318D01*
X132892034Y-37885380D01*
X132892033Y-37885383D01*
X132830627Y-38074375D01*
X132799540Y-38270652D01*
X132799540Y-38469373D01*
X132830627Y-38665650D01*
X132892033Y-38854642D01*
X132892034Y-38854645D01*
X132982253Y-39031707D01*
X133099059Y-39192477D01*
X133239576Y-39332994D01*
X133400346Y-39449800D01*
X133518872Y-39510192D01*
X133556820Y-39529528D01*
X133607616Y-39577503D01*
X133624411Y-39645324D01*
X133601873Y-39711459D01*
X133556820Y-39750498D01*
X133400345Y-39830226D01*
X133239573Y-39947034D01*
X133099061Y-40087546D01*
X132982253Y-40248318D01*
X132892034Y-40425380D01*
X132892033Y-40425383D01*
X132830627Y-40614375D01*
X132799540Y-40810652D01*
X132799540Y-41009373D01*
X132830627Y-41205650D01*
X132892033Y-41394642D01*
X132892034Y-41394645D01*
X132966688Y-41541160D01*
X132982253Y-41571707D01*
X133099059Y-41732477D01*
X133239576Y-41872994D01*
X133400346Y-41989800D01*
X133518872Y-42050192D01*
X133556820Y-42069528D01*
X133607616Y-42117503D01*
X133624411Y-42185324D01*
X133601873Y-42251459D01*
X133556820Y-42290498D01*
X133400345Y-42370226D01*
X133239573Y-42487034D01*
X133099061Y-42627546D01*
X132982253Y-42788318D01*
X132892034Y-42965380D01*
X132892033Y-42965383D01*
X132830627Y-43154375D01*
X132799540Y-43350652D01*
X132799540Y-43549373D01*
X132830627Y-43745650D01*
X132892033Y-43934642D01*
X132892034Y-43934645D01*
X132964848Y-44077548D01*
X132982253Y-44111707D01*
X133099059Y-44272477D01*
X133239576Y-44412994D01*
X133400346Y-44529800D01*
X133480128Y-44570451D01*
X133556820Y-44609528D01*
X133607616Y-44657503D01*
X133624411Y-44725324D01*
X133601873Y-44791459D01*
X133556820Y-44830498D01*
X133400345Y-44910226D01*
X133239573Y-45027034D01*
X133099061Y-45167546D01*
X132982253Y-45328318D01*
X132892034Y-45505380D01*
X132892033Y-45505383D01*
X132830627Y-45694375D01*
X132799540Y-45890652D01*
X132799540Y-46089373D01*
X132830627Y-46285650D01*
X132892033Y-46474642D01*
X132892034Y-46474645D01*
X132965455Y-46618739D01*
X132982253Y-46651707D01*
X133099059Y-46812477D01*
X133239576Y-46952994D01*
X133400346Y-47069800D01*
X133483725Y-47112284D01*
X133556820Y-47149528D01*
X133607616Y-47197503D01*
X133624411Y-47265324D01*
X133601873Y-47331459D01*
X133556820Y-47370498D01*
X133400345Y-47450226D01*
X133239573Y-47567034D01*
X133099061Y-47707546D01*
X132982253Y-47868318D01*
X132892034Y-48045380D01*
X132892033Y-48045383D01*
X132830627Y-48234375D01*
X132806382Y-48387453D01*
X132799540Y-48430652D01*
X132799540Y-48629374D01*
X132809183Y-48690256D01*
X132830627Y-48825650D01*
X132892033Y-49014642D01*
X132892034Y-49014645D01*
X132963574Y-49155048D01*
X132982253Y-49191707D01*
X133099059Y-49352477D01*
X133239576Y-49492994D01*
X133400346Y-49609800D01*
X133518872Y-49670192D01*
X133556820Y-49689528D01*
X133607616Y-49737503D01*
X133624411Y-49805324D01*
X133601873Y-49871459D01*
X133556820Y-49910498D01*
X133400345Y-49990226D01*
X133239573Y-50107034D01*
X133099061Y-50247546D01*
X132982253Y-50408318D01*
X132892034Y-50585380D01*
X132892033Y-50585383D01*
X132830627Y-50774375D01*
X132799540Y-50970652D01*
X132799540Y-51169373D01*
X132830627Y-51365650D01*
X132892033Y-51554642D01*
X132892034Y-51554645D01*
X132982253Y-51731707D01*
X133099059Y-51892477D01*
X133099061Y-51892479D01*
X133124564Y-51917982D01*
X133158049Y-51979305D01*
X133153065Y-52048997D01*
X133124564Y-52093344D01*
X132572569Y-52645340D01*
X132485444Y-52732464D01*
X132485438Y-52732472D01*
X132416990Y-52834908D01*
X132416988Y-52834913D01*
X132389261Y-52901853D01*
X132389259Y-52901858D01*
X132385660Y-52910549D01*
X132369837Y-52948748D01*
X132345800Y-53069594D01*
X118665500Y-53069594D01*
X118665500Y-49942800D01*
X118685185Y-49875761D01*
X118737989Y-49830006D01*
X118789500Y-49818800D01*
X121130308Y-49818800D01*
X121130308Y-49818799D01*
X121219036Y-49801151D01*
X121251152Y-49794763D01*
X121284492Y-49780952D01*
X121364986Y-49747612D01*
X121416209Y-49713384D01*
X121467433Y-49679158D01*
X121554558Y-49592033D01*
X121554559Y-49592031D01*
X121561625Y-49584965D01*
X121561627Y-49584961D01*
X122093665Y-49052924D01*
X122154984Y-49019442D01*
X122224676Y-49024426D01*
X122254227Y-49040290D01*
X122271621Y-49052927D01*
X122412184Y-49155051D01*
X122601588Y-49251557D01*
X122803757Y-49317246D01*
X123013713Y-49350500D01*
X123013714Y-49350500D01*
X123226286Y-49350500D01*
X123226287Y-49350500D01*
X123436243Y-49317246D01*
X123638412Y-49251557D01*
X123827816Y-49155051D01*
X123968379Y-49052927D01*
X123999786Y-49030109D01*
X123999788Y-49030106D01*
X123999792Y-49030104D01*
X124150104Y-48879792D01*
X124150106Y-48879788D01*
X124150109Y-48879786D01*
X124275048Y-48707820D01*
X124275047Y-48707820D01*
X124275051Y-48707816D01*
X124371557Y-48518412D01*
X124437246Y-48316243D01*
X124470500Y-48106287D01*
X124470500Y-47893713D01*
X124437246Y-47683757D01*
X124371557Y-47481588D01*
X124275051Y-47292184D01*
X124275049Y-47292181D01*
X124275048Y-47292179D01*
X124150109Y-47120213D01*
X123999786Y-46969890D01*
X123827820Y-46844951D01*
X123638414Y-46748444D01*
X123638413Y-46748443D01*
X123638412Y-46748443D01*
X123436243Y-46682754D01*
X123436241Y-46682753D01*
X123436240Y-46682753D01*
X123240221Y-46651707D01*
X123226287Y-46649500D01*
X123013713Y-46649500D01*
X122999779Y-46651707D01*
X122803759Y-46682753D01*
X122803755Y-46682754D01*
X122637817Y-46736670D01*
X122567976Y-46738665D01*
X122508144Y-46702584D01*
X122477316Y-46639883D01*
X122475500Y-46618739D01*
X122475500Y-44570451D01*
X122495185Y-44503412D01*
X122511814Y-44482775D01*
X124872162Y-42122426D01*
X124933483Y-42088943D01*
X124998162Y-42092179D01*
X125013757Y-42097246D01*
X125223713Y-42130500D01*
X125223714Y-42130500D01*
X125436286Y-42130500D01*
X125436287Y-42130500D01*
X125646243Y-42097246D01*
X125848412Y-42031557D01*
X126037816Y-41935051D01*
X126159990Y-41846287D01*
X126209784Y-41810110D01*
X126209784Y-41810109D01*
X126209792Y-41810104D01*
X126323329Y-41696566D01*
X126384648Y-41663084D01*
X126454340Y-41668068D01*
X126510274Y-41709939D01*
X126527189Y-41740917D01*
X126576202Y-41872328D01*
X126576206Y-41872335D01*
X126662452Y-41987544D01*
X126662455Y-41987547D01*
X126777664Y-42073793D01*
X126777671Y-42073797D01*
X126912517Y-42124091D01*
X126912516Y-42124091D01*
X126919444Y-42124835D01*
X126972127Y-42130500D01*
X128767872Y-42130499D01*
X128827483Y-42124091D01*
X128962331Y-42073796D01*
X129077546Y-41987546D01*
X129163796Y-41872331D01*
X129214091Y-41737483D01*
X129220500Y-41677873D01*
X129220499Y-39882128D01*
X129214091Y-39822517D01*
X129212810Y-39819083D01*
X129163797Y-39687671D01*
X129163793Y-39687664D01*
X129077547Y-39572455D01*
X129077544Y-39572452D01*
X128962335Y-39486206D01*
X128962328Y-39486202D01*
X128827482Y-39435908D01*
X128827483Y-39435908D01*
X128767883Y-39429501D01*
X128767881Y-39429500D01*
X128767873Y-39429500D01*
X128767864Y-39429500D01*
X126972129Y-39429500D01*
X126972123Y-39429501D01*
X126912516Y-39435908D01*
X126777671Y-39486202D01*
X126777664Y-39486206D01*
X126662455Y-39572452D01*
X126662452Y-39572455D01*
X126576206Y-39687664D01*
X126576203Y-39687669D01*
X126527189Y-39819083D01*
X126485317Y-39875016D01*
X126419853Y-39899433D01*
X126351580Y-39884581D01*
X126323326Y-39863430D01*
X126209786Y-39749890D01*
X126037820Y-39624951D01*
X125848414Y-39528444D01*
X125848413Y-39528443D01*
X125848412Y-39528443D01*
X125646243Y-39462754D01*
X125646241Y-39462753D01*
X125646240Y-39462753D01*
X125484957Y-39437208D01*
X125436287Y-39429500D01*
X125223713Y-39429500D01*
X125175042Y-39437208D01*
X125013760Y-39462753D01*
X124811585Y-39528444D01*
X124622179Y-39624951D01*
X124450213Y-39749890D01*
X124299890Y-39900213D01*
X124174951Y-40072179D01*
X124078444Y-40261585D01*
X124012753Y-40463760D01*
X123979500Y-40673713D01*
X123979500Y-40886286D01*
X124012753Y-41096241D01*
X124017821Y-41111837D01*
X124019816Y-41181678D01*
X123987571Y-41237837D01*
X121451270Y-43774139D01*
X121417181Y-43808228D01*
X121355858Y-43841713D01*
X121286166Y-43836729D01*
X121230233Y-43794857D01*
X121205816Y-43729393D01*
X121205500Y-43720547D01*
X121205500Y-41785758D01*
X121225185Y-41718719D01*
X121241819Y-41698077D01*
X121243327Y-41696569D01*
X121280104Y-41659792D01*
X121280106Y-41659788D01*
X121280109Y-41659786D01*
X121405048Y-41487820D01*
X121405047Y-41487820D01*
X121405051Y-41487816D01*
X121501557Y-41298412D01*
X121567246Y-41096243D01*
X121600500Y-40886287D01*
X121600500Y-40673713D01*
X121567246Y-40463757D01*
X121501557Y-40261588D01*
X121405051Y-40072184D01*
X121405049Y-40072181D01*
X121405048Y-40072179D01*
X121280109Y-39900213D01*
X121129786Y-39749890D01*
X120957820Y-39624951D01*
X120768414Y-39528444D01*
X120768413Y-39528443D01*
X120768412Y-39528443D01*
X120566243Y-39462754D01*
X120566241Y-39462753D01*
X120566240Y-39462753D01*
X120404957Y-39437208D01*
X120356287Y-39429500D01*
X120143713Y-39429500D01*
X120095042Y-39437208D01*
X119933760Y-39462753D01*
X119731585Y-39528444D01*
X119542179Y-39624951D01*
X119370213Y-39749890D01*
X119219890Y-39900213D01*
X119094949Y-40072182D01*
X119090484Y-40080946D01*
X119042509Y-40131742D01*
X118974688Y-40148536D01*
X118908553Y-40125998D01*
X118869516Y-40080946D01*
X118865050Y-40072182D01*
X118740109Y-39900213D01*
X118589786Y-39749890D01*
X118417820Y-39624951D01*
X118228414Y-39528444D01*
X118228413Y-39528443D01*
X118228412Y-39528443D01*
X118026243Y-39462754D01*
X118026241Y-39462753D01*
X118026240Y-39462753D01*
X117864957Y-39437208D01*
X117816287Y-39429500D01*
X117603713Y-39429500D01*
X117555042Y-39437208D01*
X117393760Y-39462753D01*
X117191585Y-39528444D01*
X117002179Y-39624951D01*
X116830213Y-39749890D01*
X116679890Y-39900213D01*
X116554949Y-40072182D01*
X116550484Y-40080946D01*
X116502509Y-40131742D01*
X116434688Y-40148536D01*
X116368553Y-40125998D01*
X116329516Y-40080946D01*
X116325050Y-40072182D01*
X116200109Y-39900213D01*
X116049786Y-39749890D01*
X115877820Y-39624951D01*
X115688414Y-39528444D01*
X115688413Y-39528443D01*
X115688412Y-39528443D01*
X115486243Y-39462754D01*
X115486241Y-39462753D01*
X115486240Y-39462753D01*
X115324957Y-39437208D01*
X115276287Y-39429500D01*
X115063713Y-39429500D01*
X115015042Y-39437208D01*
X114853760Y-39462753D01*
X114651585Y-39528444D01*
X114462179Y-39624951D01*
X114290213Y-39749890D01*
X114139890Y-39900213D01*
X114014949Y-40072182D01*
X114010484Y-40080946D01*
X113962509Y-40131742D01*
X113894688Y-40148536D01*
X113828553Y-40125998D01*
X113789516Y-40080946D01*
X113785050Y-40072182D01*
X113660109Y-39900213D01*
X113509786Y-39749890D01*
X113337820Y-39624951D01*
X113148414Y-39528444D01*
X113148413Y-39528443D01*
X113148412Y-39528443D01*
X112946243Y-39462754D01*
X112946241Y-39462753D01*
X112946240Y-39462753D01*
X112784957Y-39437208D01*
X112736287Y-39429500D01*
X112523713Y-39429500D01*
X112475042Y-39437208D01*
X112313760Y-39462753D01*
X112111585Y-39528444D01*
X111922179Y-39624951D01*
X111750213Y-39749890D01*
X111599890Y-39900213D01*
X111474951Y-40072179D01*
X111378444Y-40261585D01*
X111312753Y-40463760D01*
X111288898Y-40614375D01*
X111279500Y-40673713D01*
X111279500Y-40886287D01*
X111312754Y-41096243D01*
X111353481Y-41221588D01*
X111378444Y-41298414D01*
X111474951Y-41487820D01*
X111599890Y-41659786D01*
X111750213Y-41810109D01*
X111922179Y-41935048D01*
X111922181Y-41935049D01*
X111922184Y-41935051D01*
X112111588Y-42031557D01*
X112313757Y-42097246D01*
X112523713Y-42130500D01*
X112523714Y-42130500D01*
X112736286Y-42130500D01*
X112736287Y-42130500D01*
X112946243Y-42097246D01*
X113148412Y-42031557D01*
X113337816Y-41935051D01*
X113424138Y-41872335D01*
X113509786Y-41810109D01*
X113509788Y-41810106D01*
X113509792Y-41810104D01*
X113660104Y-41659792D01*
X113660106Y-41659788D01*
X113660109Y-41659786D01*
X113785048Y-41487820D01*
X113785047Y-41487820D01*
X113785051Y-41487816D01*
X113789514Y-41479054D01*
X113837488Y-41428259D01*
X113905308Y-41411463D01*
X113971444Y-41433999D01*
X114010486Y-41479056D01*
X114014951Y-41487820D01*
X114139890Y-41659786D01*
X114290213Y-41810109D01*
X114462179Y-41935048D01*
X114462181Y-41935049D01*
X114462184Y-41935051D01*
X114651588Y-42031557D01*
X114853757Y-42097246D01*
X115063713Y-42130500D01*
X115063714Y-42130500D01*
X115276286Y-42130500D01*
X115276287Y-42130500D01*
X115486243Y-42097246D01*
X115688412Y-42031557D01*
X115877816Y-41935051D01*
X115964138Y-41872335D01*
X116049786Y-41810109D01*
X116049788Y-41810106D01*
X116049792Y-41810104D01*
X116200104Y-41659792D01*
X116200106Y-41659788D01*
X116200109Y-41659786D01*
X116325048Y-41487820D01*
X116325047Y-41487820D01*
X116325051Y-41487816D01*
X116329514Y-41479054D01*
X116377488Y-41428259D01*
X116445308Y-41411463D01*
X116511444Y-41433999D01*
X116550486Y-41479056D01*
X116554951Y-41487820D01*
X116679890Y-41659786D01*
X116830213Y-41810109D01*
X117002179Y-41935048D01*
X117002181Y-41935049D01*
X117002184Y-41935051D01*
X117191588Y-42031557D01*
X117393757Y-42097246D01*
X117603713Y-42130500D01*
X117603714Y-42130500D01*
X117816286Y-42130500D01*
X117816287Y-42130500D01*
X118026243Y-42097246D01*
X118228412Y-42031557D01*
X118417816Y-41935051D01*
X118504138Y-41872335D01*
X118589786Y-41810109D01*
X118589788Y-41810106D01*
X118589792Y-41810104D01*
X118740104Y-41659792D01*
X118740106Y-41659788D01*
X118740109Y-41659786D01*
X118865048Y-41487820D01*
X118865047Y-41487820D01*
X118865051Y-41487816D01*
X118869514Y-41479054D01*
X118917488Y-41428259D01*
X118985308Y-41411463D01*
X119051444Y-41433999D01*
X119090486Y-41479056D01*
X119094951Y-41487820D01*
X119219890Y-41659786D01*
X119370213Y-41810109D01*
X119542179Y-41935048D01*
X119542181Y-41935049D01*
X119542184Y-41935051D01*
X119627861Y-41978705D01*
X119731583Y-42031555D01*
X119731585Y-42031555D01*
X119731588Y-42031557D01*
X119868819Y-42076146D01*
X119926494Y-42115584D01*
X119953692Y-42179943D01*
X119954500Y-42194077D01*
X119954500Y-46727019D01*
X119934815Y-46794058D01*
X119886797Y-46837503D01*
X119872180Y-46844950D01*
X119700213Y-46969890D01*
X119549890Y-47120213D01*
X119424949Y-47292182D01*
X119420484Y-47300946D01*
X119372509Y-47351742D01*
X119304688Y-47368536D01*
X119238553Y-47345998D01*
X119199516Y-47300946D01*
X119195050Y-47292182D01*
X119070109Y-47120213D01*
X118919786Y-46969890D01*
X118747820Y-46844951D01*
X118558414Y-46748444D01*
X118558413Y-46748443D01*
X118558412Y-46748443D01*
X118356243Y-46682754D01*
X118356241Y-46682753D01*
X118356240Y-46682753D01*
X118160221Y-46651707D01*
X118146287Y-46649500D01*
X117933713Y-46649500D01*
X117919779Y-46651707D01*
X117723760Y-46682753D01*
X117723757Y-46682754D01*
X117551682Y-46738665D01*
X117521585Y-46748444D01*
X117332179Y-46844951D01*
X117160213Y-46969890D01*
X117009890Y-47120213D01*
X116884951Y-47292179D01*
X116788444Y-47481585D01*
X116722753Y-47683760D01*
X116689500Y-47893713D01*
X116689500Y-48106286D01*
X116709787Y-48234377D01*
X116722754Y-48316243D01*
X116773153Y-48471355D01*
X116788444Y-48518414D01*
X116884951Y-48707820D01*
X117009890Y-48879786D01*
X117160213Y-49030109D01*
X117332181Y-49155050D01*
X117346792Y-49162494D01*
X117397589Y-49210467D01*
X117414500Y-49272980D01*
X117414500Y-56265148D01*
X117394815Y-56332187D01*
X117378181Y-56352829D01*
X109171529Y-64559481D01*
X109110206Y-64592966D01*
X109083848Y-64595800D01*
X108788389Y-64595800D01*
X108667555Y-64619835D01*
X108667545Y-64619838D01*
X108553716Y-64666987D01*
X108553707Y-64666992D01*
X108451267Y-64735441D01*
X108451263Y-64735444D01*
X108364144Y-64822563D01*
X108364141Y-64822567D01*
X108295692Y-64925007D01*
X108295687Y-64925016D01*
X108248536Y-65038849D01*
X108248536Y-65038850D01*
X108245900Y-65052102D01*
X108213513Y-65114013D01*
X108180578Y-65138393D01*
X108000345Y-65230226D01*
X107839573Y-65347034D01*
X107699061Y-65487546D01*
X107582253Y-65648318D01*
X107492034Y-65825380D01*
X107492033Y-65825383D01*
X107430627Y-66014375D01*
X107399540Y-66210652D01*
X106000500Y-66210652D01*
X106000500Y-30650652D01*
X107399540Y-30650652D01*
X107399540Y-30849373D01*
X107430627Y-31045650D01*
X107492033Y-31234642D01*
X107492034Y-31234645D01*
X107582253Y-31411707D01*
X107699059Y-31572477D01*
X107839576Y-31712994D01*
X108000346Y-31829800D01*
X108118872Y-31890192D01*
X108156820Y-31909528D01*
X108207616Y-31957503D01*
X108224411Y-32025324D01*
X108201873Y-32091459D01*
X108156820Y-32130498D01*
X108000345Y-32210226D01*
X107839573Y-32327034D01*
X107699061Y-32467546D01*
X107582253Y-32628318D01*
X107492034Y-32805380D01*
X107492033Y-32805383D01*
X107430627Y-32994375D01*
X107399540Y-33190652D01*
X107399540Y-33389373D01*
X107430627Y-33585650D01*
X107492033Y-33774642D01*
X107492034Y-33774645D01*
X107582253Y-33951707D01*
X107699059Y-34112477D01*
X107839576Y-34252994D01*
X108000346Y-34369800D01*
X108118872Y-34430192D01*
X108156820Y-34449528D01*
X108207616Y-34497503D01*
X108224411Y-34565324D01*
X108201873Y-34631459D01*
X108156820Y-34670498D01*
X108000345Y-34750226D01*
X107839573Y-34867034D01*
X107699061Y-35007546D01*
X107582253Y-35168318D01*
X107492034Y-35345380D01*
X107492033Y-35345383D01*
X107430627Y-35534375D01*
X107399540Y-35730652D01*
X107399540Y-35929373D01*
X107430627Y-36125650D01*
X107492033Y-36314642D01*
X107492034Y-36314645D01*
X107543802Y-36416243D01*
X107582253Y-36491707D01*
X107699059Y-36652477D01*
X107839576Y-36792994D01*
X108000346Y-36909800D01*
X108118872Y-36970192D01*
X108156820Y-36989528D01*
X108207616Y-37037503D01*
X108224411Y-37105324D01*
X108201873Y-37171459D01*
X108156820Y-37210498D01*
X108000345Y-37290226D01*
X107839573Y-37407034D01*
X107699061Y-37547546D01*
X107582253Y-37708318D01*
X107492034Y-37885380D01*
X107492033Y-37885383D01*
X107430627Y-38074375D01*
X107399540Y-38270652D01*
X107399540Y-38469373D01*
X107430627Y-38665650D01*
X107492033Y-38854642D01*
X107492034Y-38854645D01*
X107582253Y-39031707D01*
X107699059Y-39192477D01*
X107839576Y-39332994D01*
X108000346Y-39449800D01*
X108118872Y-39510192D01*
X108156820Y-39529528D01*
X108207616Y-39577503D01*
X108224411Y-39645324D01*
X108201873Y-39711459D01*
X108156820Y-39750498D01*
X108000345Y-39830226D01*
X107839573Y-39947034D01*
X107699061Y-40087546D01*
X107582253Y-40248318D01*
X107492034Y-40425380D01*
X107492033Y-40425383D01*
X107430627Y-40614375D01*
X107399540Y-40810652D01*
X107399540Y-41009373D01*
X107430627Y-41205650D01*
X107492033Y-41394642D01*
X107492034Y-41394645D01*
X107566688Y-41541160D01*
X107582253Y-41571707D01*
X107699059Y-41732477D01*
X107839576Y-41872994D01*
X108000346Y-41989800D01*
X108118872Y-42050192D01*
X108156820Y-42069528D01*
X108207616Y-42117503D01*
X108224411Y-42185324D01*
X108201873Y-42251459D01*
X108156820Y-42290498D01*
X108000345Y-42370226D01*
X107839573Y-42487034D01*
X107699061Y-42627546D01*
X107582253Y-42788318D01*
X107492034Y-42965380D01*
X107492033Y-42965383D01*
X107430627Y-43154375D01*
X107399540Y-43350652D01*
X107399540Y-43549373D01*
X107430627Y-43745650D01*
X107492033Y-43934642D01*
X107492034Y-43934645D01*
X107564848Y-44077548D01*
X107582253Y-44111707D01*
X107699059Y-44272477D01*
X107839576Y-44412994D01*
X108000346Y-44529800D01*
X108080128Y-44570451D01*
X108156820Y-44609528D01*
X108207616Y-44657503D01*
X108224411Y-44725324D01*
X108201873Y-44791459D01*
X108156820Y-44830498D01*
X108000345Y-44910226D01*
X107839573Y-45027034D01*
X107699061Y-45167546D01*
X107582253Y-45328318D01*
X107492034Y-45505380D01*
X107492033Y-45505383D01*
X107430627Y-45694375D01*
X107399540Y-45890652D01*
X107399540Y-46089373D01*
X107430627Y-46285650D01*
X107492033Y-46474642D01*
X107492034Y-46474645D01*
X107565455Y-46618739D01*
X107582253Y-46651707D01*
X107699059Y-46812477D01*
X107839576Y-46952994D01*
X108000346Y-47069800D01*
X108083725Y-47112284D01*
X108156820Y-47149528D01*
X108207616Y-47197503D01*
X108224411Y-47265324D01*
X108201873Y-47331459D01*
X108156820Y-47370498D01*
X108000345Y-47450226D01*
X107839573Y-47567034D01*
X107699061Y-47707546D01*
X107582253Y-47868318D01*
X107492034Y-48045380D01*
X107492033Y-48045383D01*
X107430627Y-48234375D01*
X107406382Y-48387453D01*
X107399540Y-48430652D01*
X107399540Y-48629374D01*
X107409183Y-48690256D01*
X107430627Y-48825650D01*
X107492033Y-49014642D01*
X107492034Y-49014645D01*
X107563574Y-49155048D01*
X107582253Y-49191707D01*
X107699059Y-49352477D01*
X107839576Y-49492994D01*
X108000346Y-49609800D01*
X108118872Y-49670192D01*
X108156820Y-49689528D01*
X108207616Y-49737503D01*
X108224411Y-49805324D01*
X108201873Y-49871459D01*
X108156820Y-49910498D01*
X108000345Y-49990226D01*
X107839573Y-50107034D01*
X107699061Y-50247546D01*
X107582253Y-50408318D01*
X107492034Y-50585380D01*
X107492033Y-50585383D01*
X107430627Y-50774375D01*
X107399540Y-50970652D01*
X107399540Y-51169373D01*
X107430627Y-51365650D01*
X107492033Y-51554642D01*
X107492034Y-51554645D01*
X107582253Y-51731707D01*
X107699059Y-51892477D01*
X107839576Y-52032994D01*
X108000346Y-52149800D01*
X108022779Y-52161230D01*
X108156820Y-52229528D01*
X108207616Y-52277503D01*
X108224411Y-52345324D01*
X108201873Y-52411459D01*
X108156820Y-52450498D01*
X108000345Y-52530226D01*
X107839573Y-52647034D01*
X107699061Y-52787546D01*
X107582253Y-52948318D01*
X107492034Y-53125380D01*
X107492033Y-53125383D01*
X107430627Y-53314375D01*
X107399540Y-53510652D01*
X107399540Y-53709373D01*
X107430627Y-53905650D01*
X107492033Y-54094642D01*
X107492034Y-54094645D01*
X107558614Y-54225313D01*
X107582253Y-54271707D01*
X107699059Y-54432477D01*
X107839576Y-54572994D01*
X108000346Y-54689800D01*
X108118872Y-54750192D01*
X108156820Y-54769528D01*
X108207616Y-54817503D01*
X108224411Y-54885324D01*
X108201873Y-54951459D01*
X108156820Y-54990498D01*
X108000345Y-55070226D01*
X107839573Y-55187034D01*
X107699061Y-55327546D01*
X107582253Y-55488318D01*
X107492034Y-55665380D01*
X107492033Y-55665383D01*
X107430627Y-55854375D01*
X107399540Y-56050652D01*
X107399540Y-56249373D01*
X107430627Y-56445650D01*
X107492033Y-56634642D01*
X107492034Y-56634645D01*
X107527375Y-56704004D01*
X107582253Y-56811707D01*
X107699059Y-56972477D01*
X107839576Y-57112994D01*
X108000346Y-57229800D01*
X108118872Y-57290192D01*
X108156820Y-57309528D01*
X108207616Y-57357503D01*
X108224411Y-57425324D01*
X108201873Y-57491459D01*
X108156820Y-57530498D01*
X108000345Y-57610226D01*
X107839573Y-57727034D01*
X107699061Y-57867546D01*
X107582253Y-58028318D01*
X107492034Y-58205380D01*
X107492033Y-58205383D01*
X107430627Y-58394375D01*
X107430627Y-58394377D01*
X107399540Y-58590652D01*
X107399540Y-58789374D01*
X107406024Y-58830310D01*
X107430627Y-58985650D01*
X107492033Y-59174642D01*
X107492034Y-59174645D01*
X107582253Y-59351707D01*
X107699059Y-59512477D01*
X107839576Y-59652994D01*
X108000346Y-59769800D01*
X108118872Y-59830192D01*
X108156820Y-59849528D01*
X108207616Y-59897503D01*
X108224411Y-59965324D01*
X108201873Y-60031459D01*
X108156820Y-60070498D01*
X108000345Y-60150226D01*
X107839573Y-60267034D01*
X107699061Y-60407546D01*
X107582253Y-60568318D01*
X107492034Y-60745380D01*
X107492033Y-60745383D01*
X107430627Y-60934375D01*
X107399540Y-61130652D01*
X107399540Y-61329373D01*
X107430627Y-61525650D01*
X107492033Y-61714642D01*
X107492034Y-61714645D01*
X107575824Y-61879090D01*
X107582253Y-61891707D01*
X107699059Y-62052477D01*
X107839576Y-62192994D01*
X108000346Y-62309800D01*
X108010287Y-62314865D01*
X108177407Y-62400018D01*
X108177410Y-62400019D01*
X108227645Y-62416341D01*
X108366404Y-62461426D01*
X108562679Y-62492513D01*
X108562680Y-62492513D01*
X109137400Y-62492513D01*
X109137401Y-62492513D01*
X109333676Y-62461426D01*
X109522672Y-62400018D01*
X109699734Y-62309800D01*
X109860504Y-62192994D01*
X110001021Y-62052477D01*
X110117827Y-61891707D01*
X110208045Y-61714645D01*
X110269453Y-61525649D01*
X110300540Y-61329374D01*
X110300540Y-61130652D01*
X110269453Y-60934377D01*
X110208045Y-60745381D01*
X110208045Y-60745380D01*
X110162075Y-60655162D01*
X110117827Y-60568319D01*
X110001021Y-60407549D01*
X109860504Y-60267032D01*
X109699734Y-60150226D01*
X109543258Y-60070497D01*
X109492463Y-60022523D01*
X109475668Y-59954702D01*
X109498205Y-59888567D01*
X109543258Y-59849528D01*
X109699734Y-59769800D01*
X109860504Y-59652994D01*
X110001021Y-59512477D01*
X110117827Y-59351707D01*
X110208045Y-59174645D01*
X110269453Y-58985649D01*
X110300540Y-58789374D01*
X110300540Y-58590652D01*
X110269453Y-58394377D01*
X110212432Y-58218882D01*
X110208046Y-58205383D01*
X110208045Y-58205380D01*
X110162075Y-58115162D01*
X110117827Y-58028319D01*
X110001021Y-57867549D01*
X109860504Y-57727032D01*
X109699734Y-57610226D01*
X109543258Y-57530497D01*
X109492463Y-57482523D01*
X109475668Y-57414702D01*
X109498205Y-57348567D01*
X109543258Y-57309528D01*
X109699734Y-57229800D01*
X109860504Y-57112994D01*
X110001021Y-56972477D01*
X110117827Y-56811707D01*
X110208045Y-56634645D01*
X110269453Y-56445649D01*
X110300540Y-56249374D01*
X110300540Y-56050652D01*
X110269453Y-55854377D01*
X110238749Y-55759879D01*
X110208046Y-55665383D01*
X110208045Y-55665380D01*
X110117826Y-55488318D01*
X110114637Y-55483929D01*
X110001021Y-55327549D01*
X109860504Y-55187032D01*
X109699734Y-55070226D01*
X109543258Y-54990497D01*
X109492463Y-54942523D01*
X109475668Y-54874702D01*
X109498205Y-54808567D01*
X109543258Y-54769528D01*
X109699734Y-54689800D01*
X109860504Y-54572994D01*
X110001021Y-54432477D01*
X110117827Y-54271707D01*
X110208045Y-54094645D01*
X110269453Y-53905649D01*
X110300540Y-53709374D01*
X110300540Y-53510652D01*
X110269453Y-53314377D01*
X110208045Y-53125381D01*
X110208045Y-53125380D01*
X110162075Y-53035162D01*
X110117827Y-52948319D01*
X110001021Y-52787549D01*
X109860504Y-52647032D01*
X109699734Y-52530226D01*
X109543258Y-52450497D01*
X109492463Y-52402523D01*
X109475668Y-52334702D01*
X109498205Y-52268567D01*
X109543258Y-52229528D01*
X109699734Y-52149800D01*
X109860504Y-52032994D01*
X110001021Y-51892477D01*
X110117827Y-51731707D01*
X110208045Y-51554645D01*
X110269453Y-51365649D01*
X110300540Y-51169374D01*
X110300540Y-50970652D01*
X110269453Y-50774377D01*
X110208045Y-50585381D01*
X110208045Y-50585380D01*
X110148749Y-50469007D01*
X110117827Y-50408319D01*
X110001021Y-50247549D01*
X109860504Y-50107032D01*
X109699734Y-49990226D01*
X109543258Y-49910497D01*
X109492463Y-49862523D01*
X109475668Y-49794702D01*
X109498205Y-49728567D01*
X109543258Y-49689528D01*
X109699734Y-49609800D01*
X109860504Y-49492994D01*
X110001021Y-49352477D01*
X110117827Y-49191707D01*
X110208045Y-49014645D01*
X110269453Y-48825649D01*
X110300540Y-48629374D01*
X110300540Y-48430652D01*
X110269453Y-48234377D01*
X110238749Y-48139879D01*
X110208046Y-48045383D01*
X110208045Y-48045380D01*
X110117826Y-47868318D01*
X110001021Y-47707549D01*
X109860504Y-47567032D01*
X109699734Y-47450226D01*
X109543258Y-47370497D01*
X109492463Y-47322523D01*
X109475668Y-47254702D01*
X109498205Y-47188567D01*
X109543258Y-47149528D01*
X109699734Y-47069800D01*
X109860504Y-46952994D01*
X110001021Y-46812477D01*
X110117827Y-46651707D01*
X110208045Y-46474645D01*
X110269453Y-46285649D01*
X110300540Y-46089374D01*
X110300540Y-45890652D01*
X110269453Y-45694377D01*
X110208045Y-45505381D01*
X110208045Y-45505380D01*
X110117826Y-45328318D01*
X110110610Y-45318386D01*
X110001021Y-45167549D01*
X109860504Y-45027032D01*
X109699734Y-44910226D01*
X109543258Y-44830497D01*
X109492463Y-44782523D01*
X109475668Y-44714702D01*
X109498205Y-44648567D01*
X109543258Y-44609528D01*
X109699734Y-44529800D01*
X109860504Y-44412994D01*
X110001021Y-44272477D01*
X110117827Y-44111707D01*
X110208045Y-43934645D01*
X110269453Y-43745649D01*
X110300540Y-43549374D01*
X110300540Y-43350652D01*
X110269453Y-43154377D01*
X110238749Y-43059879D01*
X110208046Y-42965383D01*
X110208045Y-42965380D01*
X110117826Y-42788318D01*
X110001021Y-42627549D01*
X109860504Y-42487032D01*
X109699734Y-42370226D01*
X109543258Y-42290497D01*
X109492463Y-42242523D01*
X109475668Y-42174702D01*
X109498205Y-42108567D01*
X109543258Y-42069528D01*
X109699734Y-41989800D01*
X109860504Y-41872994D01*
X110001021Y-41732477D01*
X110117827Y-41571707D01*
X110208045Y-41394645D01*
X110269453Y-41205649D01*
X110300540Y-41009374D01*
X110300540Y-40810652D01*
X110269453Y-40614377D01*
X110238749Y-40519879D01*
X110208046Y-40425383D01*
X110208045Y-40425380D01*
X110117826Y-40248318D01*
X110001021Y-40087549D01*
X109860504Y-39947032D01*
X109699734Y-39830226D01*
X109543258Y-39750497D01*
X109492463Y-39702523D01*
X109475668Y-39634702D01*
X109498205Y-39568567D01*
X109543258Y-39529528D01*
X109699734Y-39449800D01*
X109860504Y-39332994D01*
X110001021Y-39192477D01*
X110117827Y-39031707D01*
X110208045Y-38854645D01*
X110269453Y-38665649D01*
X110300540Y-38469374D01*
X110300540Y-38270652D01*
X110269453Y-38074377D01*
X110208045Y-37885381D01*
X110208045Y-37885380D01*
X110117826Y-37708318D01*
X110001021Y-37547549D01*
X109860504Y-37407032D01*
X109699734Y-37290226D01*
X109543258Y-37210497D01*
X109492463Y-37162523D01*
X109475668Y-37094702D01*
X109498205Y-37028567D01*
X109543258Y-36989528D01*
X109699734Y-36909800D01*
X109860504Y-36792994D01*
X110001021Y-36652477D01*
X110117827Y-36491707D01*
X110208045Y-36314645D01*
X110269453Y-36125649D01*
X110300540Y-35929374D01*
X110300540Y-35730652D01*
X110269453Y-35534377D01*
X110208045Y-35345381D01*
X110208045Y-35345380D01*
X110117826Y-35168318D01*
X110001021Y-35007549D01*
X109860504Y-34867032D01*
X109699734Y-34750226D01*
X109543258Y-34670497D01*
X109492463Y-34622523D01*
X109475668Y-34554702D01*
X109498205Y-34488567D01*
X109543258Y-34449528D01*
X109699734Y-34369800D01*
X109860504Y-34252994D01*
X110001021Y-34112477D01*
X110117827Y-33951707D01*
X110208045Y-33774645D01*
X110269453Y-33585649D01*
X110300540Y-33389374D01*
X110300540Y-33190652D01*
X110269453Y-32994377D01*
X110208045Y-32805381D01*
X110208045Y-32805380D01*
X110117826Y-32628318D01*
X110001021Y-32467549D01*
X109860504Y-32327032D01*
X109699734Y-32210226D01*
X109543258Y-32130497D01*
X109492463Y-32082523D01*
X109475668Y-32014702D01*
X109498205Y-31948567D01*
X109543258Y-31909528D01*
X109699734Y-31829800D01*
X109860504Y-31712994D01*
X110001021Y-31572477D01*
X110117827Y-31411707D01*
X110208045Y-31234645D01*
X110269453Y-31045649D01*
X110300540Y-30849374D01*
X110300540Y-30650652D01*
X110269453Y-30454377D01*
X110208045Y-30265381D01*
X110208045Y-30265380D01*
X110117826Y-30088318D01*
X110001021Y-29927549D01*
X109860504Y-29787032D01*
X109699734Y-29670226D01*
X109522672Y-29580007D01*
X109522669Y-29580006D01*
X109333677Y-29518600D01*
X109235538Y-29503056D01*
X109137401Y-29487513D01*
X108562679Y-29487513D01*
X108497254Y-29497875D01*
X108366402Y-29518600D01*
X108177410Y-29580006D01*
X108177407Y-29580007D01*
X108000345Y-29670226D01*
X107839573Y-29787034D01*
X107699061Y-29927546D01*
X107582253Y-30088318D01*
X107492034Y-30265380D01*
X107492033Y-30265383D01*
X107430627Y-30454375D01*
X107399540Y-30650652D01*
X106000500Y-30650652D01*
X106000500Y-24124500D01*
X106020185Y-24057461D01*
X106072989Y-24011706D01*
X106124500Y-24000500D01*
X108216526Y-24000500D01*
X108283565Y-24020185D01*
G37*
%TD.AperFunction*%
%TD*%
M02*
