%TF.GenerationSoftware,KiCad,Pcbnew,9.0.8*%
%TF.CreationDate,2026-03-26T00:07:00-06:00*%
%TF.ProjectId,hivis2,68697669-7332-42e6-9b69-6361645f7063,rev?*%
%TF.SameCoordinates,Original*%
%TF.FileFunction,Copper,L1,Top*%
%TF.FilePolarity,Positive*%
%FSLAX46Y46*%
G04 Gerber Fmt 4.6, Leading zero omitted, Abs format (unit mm)*
G04 Created by KiCad (PCBNEW 9.0.8) date 2026-03-26 00:07:00*
%MOMM*%
%LPD*%
G01*
G04 APERTURE LIST*
G04 Aperture macros list*
%AMRoundRect*
0 Rectangle with rounded corners*
0 $1 Rounding radius*
0 $2 $3 $4 $5 $6 $7 $8 $9 X,Y pos of 4 corners*
0 Add a 4 corners polygon primitive as box body*
4,1,4,$2,$3,$4,$5,$6,$7,$8,$9,$2,$3,0*
0 Add four circle primitives for the rounded corners*
1,1,$1+$1,$2,$3*
1,1,$1+$1,$4,$5*
1,1,$1+$1,$6,$7*
1,1,$1+$1,$8,$9*
0 Add four rect primitives between the rounded corners*
20,1,$1+$1,$2,$3,$4,$5,0*
20,1,$1+$1,$4,$5,$6,$7,0*
20,1,$1+$1,$6,$7,$8,$9,0*
20,1,$1+$1,$8,$9,$2,$3,0*%
G04 Aperture macros list end*
%TA.AperFunction,ComponentPad*%
%ADD10O,1.900000X1.524000*%
%TD*%
%TA.AperFunction,ComponentPad*%
%ADD11C,2.000000*%
%TD*%
%TA.AperFunction,ComponentPad*%
%ADD12R,2.000000X2.000000*%
%TD*%
%TA.AperFunction,ComponentPad*%
%ADD13C,1.700000*%
%TD*%
%TA.AperFunction,ComponentPad*%
%ADD14RoundRect,0.250000X-0.350000X-0.625000X0.350000X-0.625000X0.350000X0.625000X-0.350000X0.625000X0*%
%TD*%
%TA.AperFunction,ComponentPad*%
%ADD15O,1.200000X1.750000*%
%TD*%
%TA.AperFunction,ComponentPad*%
%ADD16C,1.400000*%
%TD*%
%TA.AperFunction,ComponentPad*%
%ADD17R,1.700000X1.700000*%
%TD*%
%TA.AperFunction,ComponentPad*%
%ADD18C,1.600000*%
%TD*%
%TA.AperFunction,ViaPad*%
%ADD19C,0.800000*%
%TD*%
%TA.AperFunction,Conductor*%
%ADD20C,0.250000*%
%TD*%
G04 APERTURE END LIST*
D10*
%TO.P,U1,1,VIN*%
%TO.N,+5V*%
X134250040Y-66310013D03*
%TO.P,U1,2,GND*%
%TO.N,GND*%
X134250040Y-63770013D03*
%TO.P,U1,3,GPIO13*%
X134250040Y-61230013D03*
%TO.P,U1,4,GPIO12*%
%TO.N,/I2S_WS*%
X134250040Y-58690013D03*
%TO.P,U1,5,GPIO14*%
%TO.N,/I2S_SCK*%
X134250040Y-56150013D03*
%TO.P,U1,6,GPIO27*%
%TO.N,unconnected-(U1-GPIO27-Pad6)*%
X134250040Y-53610013D03*
%TO.P,U1,7,GPIO26*%
%TO.N,/I2S_SD*%
X134250040Y-51070013D03*
%TO.P,U1,8,GPIO25*%
%TO.N,/Buzzer*%
X134250040Y-48530013D03*
%TO.P,U1,9,GPIO33*%
%TO.N,unconnected-(U1-GPIO33-Pad9)*%
X134250040Y-45990013D03*
%TO.P,U1,10,GPIO32*%
%TO.N,unconnected-(U1-GPIO32-Pad10)*%
X134250040Y-43450013D03*
%TO.P,U1,11,GPIO35*%
%TO.N,unconnected-(U1-GPIO35-Pad11)*%
X134250040Y-40910013D03*
%TO.P,U1,12,GPIO34*%
%TO.N,unconnected-(U1-GPIO34-Pad12)*%
X134250040Y-38370013D03*
%TO.P,U1,13,GPIO39*%
%TO.N,unconnected-(U1-GPIO39-Pad13)*%
X134250040Y-35830013D03*
%TO.P,U1,14,GPIO36*%
%TO.N,/BAT_ADC*%
X134250040Y-33290013D03*
%TO.P,U1,15,EN*%
%TO.N,unconnected-(U1-EN-Pad15)*%
X134250040Y-30750013D03*
%TO.P,U1,16,3.3v*%
%TO.N,+3V3*%
X108850040Y-66310013D03*
%TO.P,U1,17,GND*%
%TO.N,GND*%
X108850040Y-63770013D03*
%TO.P,U1,18,GPIO15*%
%TO.N,unconnected-(U1-GPIO15-Pad18)*%
X108850040Y-61230013D03*
%TO.P,U1,19,GPIO2*%
%TO.N,unconnected-(U1-GPIO2-Pad19)*%
X108850040Y-58690013D03*
%TO.P,U1,20,GPIO4*%
%TO.N,/BTN*%
X108850040Y-56150013D03*
%TO.P,U1,21,GPIO16*%
%TO.N,unconnected-(U1-GPIO16-Pad21)*%
X108850040Y-53610013D03*
%TO.P,U1,22,GPIO17*%
%TO.N,unconnected-(U1-GPIO17-Pad22)*%
X108850040Y-51070013D03*
%TO.P,U1,23,GPIO5*%
%TO.N,unconnected-(U1-GPIO5-Pad23)*%
X108850040Y-48530013D03*
%TO.P,U1,24,GPIO18*%
%TO.N,unconnected-(U1-GPIO18-Pad24)*%
X108850040Y-45990013D03*
%TO.P,U1,25,GPIO19*%
%TO.N,unconnected-(U1-GPIO19-Pad25)*%
X108850040Y-43450013D03*
%TO.P,U1,26,GPIO21*%
%TO.N,/SDA*%
X108850040Y-40910013D03*
%TO.P,U1,27,GPIO3*%
%TO.N,unconnected-(U1-GPIO3-Pad27)*%
X108850040Y-38370013D03*
%TO.P,U1,28,GPIO1*%
%TO.N,unconnected-(U1-GPIO1-Pad28)*%
X108850040Y-35830013D03*
%TO.P,U1,29,GPIO22*%
%TO.N,/SCL*%
X108850040Y-33290013D03*
%TO.P,U1,30,GPIO23*%
%TO.N,unconnected-(U1-GPIO23-Pad30)*%
X108850040Y-30750013D03*
%TD*%
D11*
%TO.P,SW1,1,1*%
%TO.N,/BTN*%
X145500000Y-70250000D03*
X139000000Y-70250000D03*
%TO.P,SW1,2,2*%
%TO.N,GND*%
X145500000Y-65750000D03*
X139000000Y-65750000D03*
%TD*%
D12*
%TO.P,BZ1,1,+*%
%TO.N,Net-(BZ1-+)*%
X140000000Y-31500000D03*
D11*
%TO.P,BZ1,2,-*%
%TO.N,GND*%
X145000000Y-31500000D03*
%TD*%
D13*
%TO.P,J4,1,Pin_1*%
%TO.N,GND*%
X172500000Y-26500000D03*
%TO.P,J4,2,Pin_2*%
%TO.N,unconnected-(J4-Pin_2-Pad2)*%
X172500000Y-41740000D03*
%TO.P,J4,3,Pin_3*%
%TO.N,GND*%
X172500000Y-49360000D03*
%TO.P,J4,4,Pin_4*%
%TO.N,+5V*%
X172500000Y-54440000D03*
%TO.P,J4,5,Pin_5*%
%TO.N,+BATT*%
X152180000Y-39200000D03*
%TO.P,J4,6,Pin_6*%
%TO.N,GND*%
X152180000Y-49360000D03*
%TD*%
D14*
%TO.P,J5,1,Pin_1*%
%TO.N,+BATT*%
X152500000Y-69500000D03*
D15*
%TO.P,J5,2,Pin_2*%
%TO.N,GND*%
X154500000Y-69500000D03*
%TD*%
D16*
%TO.P,R5,1*%
%TO.N,/Buzzer*%
X138500000Y-60500000D03*
%TO.P,R5,2*%
%TO.N,Net-(BZ1-+)*%
X146120000Y-60500000D03*
%TD*%
D17*
%TO.P,J1,1,Pin_1*%
%TO.N,unconnected-(J1-Pin_1-Pad1)*%
X127870000Y-40780000D03*
D13*
%TO.P,J1,2,Pin_2*%
%TO.N,+3V3*%
X125330000Y-40780000D03*
%TO.P,J1,3,Pin_3*%
%TO.N,GND*%
X122790000Y-40780000D03*
%TO.P,J1,4,Pin_4*%
%TO.N,/SCL*%
X120250000Y-40780000D03*
%TO.P,J1,5,Pin_5*%
%TO.N,unconnected-(J1-Pin_5-Pad5)*%
X117710000Y-40780000D03*
%TO.P,J1,6,Pin_6*%
%TO.N,/SDA*%
X115170000Y-40780000D03*
%TO.P,J1,7,Pin_7*%
%TO.N,unconnected-(J1-Pin_7-Pad7)*%
X112630000Y-40780000D03*
%TD*%
D18*
%TO.P,C2,1*%
%TO.N,+3V3*%
X145500000Y-46000000D03*
%TO.P,C2,2*%
%TO.N,GND*%
X145500000Y-41000000D03*
%TD*%
D16*
%TO.P,R4,1*%
%TO.N,/BAT_ADC*%
X149380000Y-64000000D03*
%TO.P,R4,2*%
%TO.N,GND*%
X157000000Y-64000000D03*
%TD*%
%TO.P,R2,1*%
%TO.N,+3V3*%
X138500000Y-55000000D03*
%TO.P,R2,2*%
%TO.N,/SDA*%
X146120000Y-55000000D03*
%TD*%
D18*
%TO.P,C1,1*%
%TO.N,+3V3*%
X139000000Y-46000000D03*
%TO.P,C1,2*%
%TO.N,GND*%
X139000000Y-41000000D03*
%TD*%
D16*
%TO.P,R1,1*%
%TO.N,+3V3*%
X138500000Y-49500000D03*
%TO.P,R1,2*%
%TO.N,/SCL*%
X146120000Y-49500000D03*
%TD*%
D13*
%TO.P,J2,1,Pin_1*%
%TO.N,GND*%
X164500000Y-62000000D03*
%TO.P,J2,2,Pin_2*%
%TO.N,+3V3*%
X164500000Y-64540000D03*
%TO.P,J2,3,Pin_3*%
%TO.N,/I2S_SD*%
X164500000Y-67080000D03*
%TO.P,J2,4,Pin_4*%
%TO.N,GND*%
X172500000Y-62000000D03*
%TO.P,J2,5,Pin_5*%
%TO.N,/I2S_WS*%
X172500000Y-64540000D03*
%TO.P,J2,6,Pin_6*%
%TO.N,/I2S_SCK*%
X172500000Y-67080000D03*
%TD*%
D16*
%TO.P,R3,1*%
%TO.N,+BATT*%
X149380000Y-58500000D03*
%TO.P,R3,2*%
%TO.N,/BAT_ADC*%
X157000000Y-58500000D03*
%TD*%
D17*
%TO.P,J3,1,Pin_1*%
%TO.N,GND*%
X115500000Y-48000000D03*
D13*
%TO.P,J3,2,Pin_2*%
%TO.N,+3V3*%
X118040000Y-48000000D03*
%TO.P,J3,3,Pin_3*%
%TO.N,/SCL*%
X120580000Y-48000000D03*
%TO.P,J3,4,Pin_4*%
%TO.N,/SDA*%
X123120000Y-48000000D03*
%TD*%
D19*
%TO.N,+3V3*%
X139574100Y-62888900D03*
%TO.N,/I2S_SD*%
X135732600Y-62679000D03*
%TD*%
D20*
%TO.N,/I2S_WS*%
X169398000Y-64540000D02*
X172500000Y-64540000D01*
X165478400Y-60620400D02*
X169398000Y-64540000D01*
X134250000Y-58690000D02*
X145762100Y-58690000D01*
X145762100Y-58690000D02*
X147692500Y-60620400D01*
X147692500Y-60620400D02*
X165478400Y-60620400D01*
%TO.N,/I2S_SCK*%
X174225000Y-60725000D02*
X174250000Y-60725000D01*
X135912100Y-56535400D02*
X170035400Y-56535400D01*
X170035400Y-56535400D02*
X174225000Y-60725000D01*
X174250000Y-60725000D02*
X174250000Y-64451701D01*
X172500000Y-66201701D02*
X172500000Y-67080000D01*
X135526700Y-56150000D02*
X135912100Y-56535400D01*
X174250000Y-64451701D02*
X172500000Y-66201701D01*
X134250000Y-56150000D02*
X135526700Y-56150000D01*
%TO.N,/BTN*%
X145500000Y-70250000D02*
X139000000Y-70250000D01*
X122323500Y-56150000D02*
X108850000Y-56150000D01*
X136423500Y-70250000D02*
X122323500Y-56150000D01*
X139000000Y-70250000D02*
X136423500Y-70250000D01*
%TO.N,+3V3*%
X137720000Y-44720000D02*
X139000000Y-46000000D01*
X129270000Y-44720000D02*
X137720000Y-44720000D01*
X125330000Y-40780000D02*
X129270000Y-44720000D01*
X145500000Y-46000000D02*
X139000000Y-46000000D01*
X162809300Y-62849300D02*
X164500000Y-64540000D01*
X139613700Y-62849300D02*
X162809300Y-62849300D01*
X139574100Y-62888900D02*
X139613700Y-62849300D01*
%TO.N,+5V*%
X133705700Y-65221300D02*
X134250000Y-65221300D01*
X132840400Y-64356000D02*
X133705700Y-65221300D01*
X132840400Y-55758700D02*
X132840400Y-64356000D01*
X133574400Y-55024700D02*
X132840400Y-55758700D01*
X136799700Y-55024700D02*
X133574400Y-55024700D01*
X137812400Y-56037400D02*
X136799700Y-55024700D01*
X170902600Y-56037400D02*
X137812400Y-56037400D01*
X172500000Y-54440000D02*
X170902600Y-56037400D01*
X134250000Y-66310000D02*
X134250000Y-65221300D01*
%TO.N,/I2S_SD*%
X137113600Y-64060000D02*
X135732600Y-62679000D01*
X145988900Y-64060000D02*
X137113600Y-64060000D01*
X149008900Y-67080000D02*
X145988900Y-64060000D01*
X164500000Y-67080000D02*
X149008900Y-67080000D01*
%TO.N,/SDA*%
X108850000Y-40910000D02*
X108850000Y-41998700D01*
X108850000Y-41998700D02*
X113951300Y-41998700D01*
X113951300Y-41998700D02*
X114003000Y-41998700D01*
X115170000Y-40780000D02*
X115170000Y-41998700D01*
X114003000Y-41998700D02*
X115170000Y-41998700D01*
X117118700Y-41998700D02*
X123120000Y-48000000D01*
X115170000Y-41998700D02*
X117118700Y-41998700D01*
X127331200Y-52211200D02*
X123120000Y-48000000D01*
X143331200Y-52211200D02*
X127331200Y-52211200D01*
X146120000Y-55000000D02*
X143331200Y-52211200D01*
%TO.N,/SCL*%
X112760000Y-33290000D02*
X108850000Y-33290000D01*
X120250000Y-40780000D02*
X112760000Y-33290000D01*
X143856000Y-47236000D02*
X146120000Y-49500000D01*
X126706000Y-47236000D02*
X143856000Y-47236000D01*
X120250000Y-40780000D02*
X126706000Y-47236000D01*
%TD*%
M02*
