M48
; DRILL file {KiCad 9.0.8} date 2026-03-26T00:07:24-0600
; FORMAT={-:-/ absolute / metric / decimal}
; #@! TF.CreationDate,2026-03-26T00:07:24-06:00
; #@! TF.GenerationSoftware,Kicad,Pcbnew,9.0.8
; #@! TF.FileFunction,Plated,1,2,PTH
FMAT,2
METRIC
; #@! TA.AperFunction,Plated,PTH,ViaDrill
T1C0.400
; #@! TA.AperFunction,Plated,PTH,ComponentDrill
T2C0.700
; #@! TA.AperFunction,Plated,PTH,ComponentDrill
T3C0.750
; #@! TA.AperFunction,Plated,PTH,ComponentDrill
T4C0.800
; #@! TA.AperFunction,Plated,PTH,ComponentDrill
T5C1.000
; #@! TA.AperFunction,Plated,PTH,ComponentDrill
T6C1.100
%
G90
G05
T1
X135.733Y-62.679
X139.574Y-62.889
T2
X138.5Y-49.5
X138.5Y-55.0
X138.5Y-60.5
X146.12Y-49.5
X146.12Y-55.0
X146.12Y-60.5
X149.38Y-58.5
X149.38Y-64.0
X157.0Y-58.5
X157.0Y-64.0
T3
X152.5Y-69.5
X154.5Y-69.5
T4
X108.85Y-30.75
X108.85Y-33.29
X108.85Y-35.83
X108.85Y-38.37
X108.85Y-40.91
X108.85Y-43.45
X108.85Y-45.99
X108.85Y-48.53
X108.85Y-51.07
X108.85Y-53.61
X108.85Y-56.15
X108.85Y-58.69
X108.85Y-61.23
X108.85Y-63.77
X108.85Y-66.31
X134.25Y-30.75
X134.25Y-33.29
X134.25Y-35.83
X134.25Y-38.37
X134.25Y-40.91
X134.25Y-43.45
X134.25Y-45.99
X134.25Y-48.53
X134.25Y-51.07
X134.25Y-53.61
X134.25Y-56.15
X134.25Y-58.69
X134.25Y-61.23
X134.25Y-63.77
X134.25Y-66.31
X139.0Y-41.0
X139.0Y-46.0
X145.5Y-41.0
X145.5Y-46.0
T5
X112.63Y-40.78
X115.17Y-40.78
X115.5Y-48.0
X117.71Y-40.78
X118.04Y-48.0
X120.25Y-40.78
X120.58Y-48.0
X122.79Y-40.78
X123.12Y-48.0
X125.33Y-40.78
X127.87Y-40.78
X140.0Y-31.5
X145.0Y-31.5
X152.18Y-39.2
X152.18Y-49.36
X164.5Y-62.0
X164.5Y-64.54
X164.5Y-67.08
X172.5Y-26.5
X172.5Y-41.74
X172.5Y-49.36
X172.5Y-54.44
X172.5Y-62.0
X172.5Y-64.54
X172.5Y-67.08
T6
X139.0Y-65.75
X139.0Y-70.25
X145.5Y-65.75
X145.5Y-70.25
M30
