%TF.GenerationSoftware,KiCad,Pcbnew,9.0.8*%
%TF.CreationDate,2026-03-26T00:07:00-06:00*%
%TF.ProjectId,hivis2,68697669-7332-42e6-9b69-6361645f7063,rev?*%
%TF.SameCoordinates,Original*%
%TF.FileFunction,Legend,Top*%
%TF.FilePolarity,Positive*%
%FSLAX46Y46*%
G04 Gerber Fmt 4.6, Leading zero omitted, Abs format (unit mm)*
G04 Created by KiCad (PCBNEW 9.0.8) date 2026-03-26 00:07:00*
%MOMM*%
%LPD*%
G01*
G04 APERTURE LIST*
%ADD10C,0.150000*%
%ADD11C,0.100000*%
%ADD12C,0.120000*%
G04 APERTURE END LIST*
D10*
X144666667Y-73157200D02*
X144809524Y-73204819D01*
X144809524Y-73204819D02*
X145047619Y-73204819D01*
X145047619Y-73204819D02*
X145142857Y-73157200D01*
X145142857Y-73157200D02*
X145190476Y-73109580D01*
X145190476Y-73109580D02*
X145238095Y-73014342D01*
X145238095Y-73014342D02*
X145238095Y-72919104D01*
X145238095Y-72919104D02*
X145190476Y-72823866D01*
X145190476Y-72823866D02*
X145142857Y-72776247D01*
X145142857Y-72776247D02*
X145047619Y-72728628D01*
X145047619Y-72728628D02*
X144857143Y-72681009D01*
X144857143Y-72681009D02*
X144761905Y-72633390D01*
X144761905Y-72633390D02*
X144714286Y-72585771D01*
X144714286Y-72585771D02*
X144666667Y-72490533D01*
X144666667Y-72490533D02*
X144666667Y-72395295D01*
X144666667Y-72395295D02*
X144714286Y-72300057D01*
X144714286Y-72300057D02*
X144761905Y-72252438D01*
X144761905Y-72252438D02*
X144857143Y-72204819D01*
X144857143Y-72204819D02*
X145095238Y-72204819D01*
X145095238Y-72204819D02*
X145238095Y-72252438D01*
X145571429Y-72204819D02*
X145809524Y-73204819D01*
X145809524Y-73204819D02*
X146000000Y-72490533D01*
X146000000Y-72490533D02*
X146190476Y-73204819D01*
X146190476Y-73204819D02*
X146428572Y-72204819D01*
X147333333Y-73204819D02*
X146761905Y-73204819D01*
X147047619Y-73204819D02*
X147047619Y-72204819D01*
X147047619Y-72204819D02*
X146952381Y-72347676D01*
X146952381Y-72347676D02*
X146857143Y-72442914D01*
X146857143Y-72442914D02*
X146761905Y-72490533D01*
X141619047Y-24261009D02*
X141761904Y-24308628D01*
X141761904Y-24308628D02*
X141809523Y-24356247D01*
X141809523Y-24356247D02*
X141857142Y-24451485D01*
X141857142Y-24451485D02*
X141857142Y-24594342D01*
X141857142Y-24594342D02*
X141809523Y-24689580D01*
X141809523Y-24689580D02*
X141761904Y-24737200D01*
X141761904Y-24737200D02*
X141666666Y-24784819D01*
X141666666Y-24784819D02*
X141285714Y-24784819D01*
X141285714Y-24784819D02*
X141285714Y-23784819D01*
X141285714Y-23784819D02*
X141619047Y-23784819D01*
X141619047Y-23784819D02*
X141714285Y-23832438D01*
X141714285Y-23832438D02*
X141761904Y-23880057D01*
X141761904Y-23880057D02*
X141809523Y-23975295D01*
X141809523Y-23975295D02*
X141809523Y-24070533D01*
X141809523Y-24070533D02*
X141761904Y-24165771D01*
X141761904Y-24165771D02*
X141714285Y-24213390D01*
X141714285Y-24213390D02*
X141619047Y-24261009D01*
X141619047Y-24261009D02*
X141285714Y-24261009D01*
X142190476Y-23784819D02*
X142857142Y-23784819D01*
X142857142Y-23784819D02*
X142190476Y-24784819D01*
X142190476Y-24784819D02*
X142857142Y-24784819D01*
X143761904Y-24784819D02*
X143190476Y-24784819D01*
X143476190Y-24784819D02*
X143476190Y-23784819D01*
X143476190Y-23784819D02*
X143380952Y-23927676D01*
X143380952Y-23927676D02*
X143285714Y-24022914D01*
X143285714Y-24022914D02*
X143190476Y-24070533D01*
D11*
X166042580Y-37666666D02*
X165328295Y-37666666D01*
X165328295Y-37666666D02*
X165185438Y-37619047D01*
X165185438Y-37619047D02*
X165090200Y-37523809D01*
X165090200Y-37523809D02*
X165042580Y-37380952D01*
X165042580Y-37380952D02*
X165042580Y-37285714D01*
X165709247Y-38571428D02*
X165042580Y-38571428D01*
X166090200Y-38333333D02*
X165375914Y-38095238D01*
X165375914Y-38095238D02*
X165375914Y-38714285D01*
D10*
X157666666Y-68954819D02*
X157666666Y-69669104D01*
X157666666Y-69669104D02*
X157619047Y-69811961D01*
X157619047Y-69811961D02*
X157523809Y-69907200D01*
X157523809Y-69907200D02*
X157380952Y-69954819D01*
X157380952Y-69954819D02*
X157285714Y-69954819D01*
X158619047Y-68954819D02*
X158142857Y-68954819D01*
X158142857Y-68954819D02*
X158095238Y-69431009D01*
X158095238Y-69431009D02*
X158142857Y-69383390D01*
X158142857Y-69383390D02*
X158238095Y-69335771D01*
X158238095Y-69335771D02*
X158476190Y-69335771D01*
X158476190Y-69335771D02*
X158571428Y-69383390D01*
X158571428Y-69383390D02*
X158619047Y-69431009D01*
X158619047Y-69431009D02*
X158666666Y-69526247D01*
X158666666Y-69526247D02*
X158666666Y-69764342D01*
X158666666Y-69764342D02*
X158619047Y-69859580D01*
X158619047Y-69859580D02*
X158571428Y-69907200D01*
X158571428Y-69907200D02*
X158476190Y-69954819D01*
X158476190Y-69954819D02*
X158238095Y-69954819D01*
X158238095Y-69954819D02*
X158142857Y-69907200D01*
X158142857Y-69907200D02*
X158095238Y-69859580D01*
X142143333Y-59034819D02*
X141810000Y-58558628D01*
X141571905Y-59034819D02*
X141571905Y-58034819D01*
X141571905Y-58034819D02*
X141952857Y-58034819D01*
X141952857Y-58034819D02*
X142048095Y-58082438D01*
X142048095Y-58082438D02*
X142095714Y-58130057D01*
X142095714Y-58130057D02*
X142143333Y-58225295D01*
X142143333Y-58225295D02*
X142143333Y-58368152D01*
X142143333Y-58368152D02*
X142095714Y-58463390D01*
X142095714Y-58463390D02*
X142048095Y-58511009D01*
X142048095Y-58511009D02*
X141952857Y-58558628D01*
X141952857Y-58558628D02*
X141571905Y-58558628D01*
X143048095Y-58034819D02*
X142571905Y-58034819D01*
X142571905Y-58034819D02*
X142524286Y-58511009D01*
X142524286Y-58511009D02*
X142571905Y-58463390D01*
X142571905Y-58463390D02*
X142667143Y-58415771D01*
X142667143Y-58415771D02*
X142905238Y-58415771D01*
X142905238Y-58415771D02*
X143000476Y-58463390D01*
X143000476Y-58463390D02*
X143048095Y-58511009D01*
X143048095Y-58511009D02*
X143095714Y-58606247D01*
X143095714Y-58606247D02*
X143095714Y-58844342D01*
X143095714Y-58844342D02*
X143048095Y-58939580D01*
X143048095Y-58939580D02*
X143000476Y-58987200D01*
X143000476Y-58987200D02*
X142905238Y-59034819D01*
X142905238Y-59034819D02*
X142667143Y-59034819D01*
X142667143Y-59034819D02*
X142571905Y-58987200D01*
X142571905Y-58987200D02*
X142524286Y-58939580D01*
X143359580Y-43666666D02*
X143407200Y-43714285D01*
X143407200Y-43714285D02*
X143454819Y-43857142D01*
X143454819Y-43857142D02*
X143454819Y-43952380D01*
X143454819Y-43952380D02*
X143407200Y-44095237D01*
X143407200Y-44095237D02*
X143311961Y-44190475D01*
X143311961Y-44190475D02*
X143216723Y-44238094D01*
X143216723Y-44238094D02*
X143026247Y-44285713D01*
X143026247Y-44285713D02*
X142883390Y-44285713D01*
X142883390Y-44285713D02*
X142692914Y-44238094D01*
X142692914Y-44238094D02*
X142597676Y-44190475D01*
X142597676Y-44190475D02*
X142502438Y-44095237D01*
X142502438Y-44095237D02*
X142454819Y-43952380D01*
X142454819Y-43952380D02*
X142454819Y-43857142D01*
X142454819Y-43857142D02*
X142502438Y-43714285D01*
X142502438Y-43714285D02*
X142550057Y-43666666D01*
X142550057Y-43285713D02*
X142502438Y-43238094D01*
X142502438Y-43238094D02*
X142454819Y-43142856D01*
X142454819Y-43142856D02*
X142454819Y-42904761D01*
X142454819Y-42904761D02*
X142502438Y-42809523D01*
X142502438Y-42809523D02*
X142550057Y-42761904D01*
X142550057Y-42761904D02*
X142645295Y-42714285D01*
X142645295Y-42714285D02*
X142740533Y-42714285D01*
X142740533Y-42714285D02*
X142883390Y-42761904D01*
X142883390Y-42761904D02*
X143454819Y-43333332D01*
X143454819Y-43333332D02*
X143454819Y-42714285D01*
X153023333Y-62534819D02*
X152690000Y-62058628D01*
X152451905Y-62534819D02*
X152451905Y-61534819D01*
X152451905Y-61534819D02*
X152832857Y-61534819D01*
X152832857Y-61534819D02*
X152928095Y-61582438D01*
X152928095Y-61582438D02*
X152975714Y-61630057D01*
X152975714Y-61630057D02*
X153023333Y-61725295D01*
X153023333Y-61725295D02*
X153023333Y-61868152D01*
X153023333Y-61868152D02*
X152975714Y-61963390D01*
X152975714Y-61963390D02*
X152928095Y-62011009D01*
X152928095Y-62011009D02*
X152832857Y-62058628D01*
X152832857Y-62058628D02*
X152451905Y-62058628D01*
X153880476Y-61868152D02*
X153880476Y-62534819D01*
X153642381Y-61487200D02*
X153404286Y-62201485D01*
X153404286Y-62201485D02*
X154023333Y-62201485D01*
X142143333Y-53534819D02*
X141810000Y-53058628D01*
X141571905Y-53534819D02*
X141571905Y-52534819D01*
X141571905Y-52534819D02*
X141952857Y-52534819D01*
X141952857Y-52534819D02*
X142048095Y-52582438D01*
X142048095Y-52582438D02*
X142095714Y-52630057D01*
X142095714Y-52630057D02*
X142143333Y-52725295D01*
X142143333Y-52725295D02*
X142143333Y-52868152D01*
X142143333Y-52868152D02*
X142095714Y-52963390D01*
X142095714Y-52963390D02*
X142048095Y-53011009D01*
X142048095Y-53011009D02*
X141952857Y-53058628D01*
X141952857Y-53058628D02*
X141571905Y-53058628D01*
X142524286Y-52630057D02*
X142571905Y-52582438D01*
X142571905Y-52582438D02*
X142667143Y-52534819D01*
X142667143Y-52534819D02*
X142905238Y-52534819D01*
X142905238Y-52534819D02*
X143000476Y-52582438D01*
X143000476Y-52582438D02*
X143048095Y-52630057D01*
X143048095Y-52630057D02*
X143095714Y-52725295D01*
X143095714Y-52725295D02*
X143095714Y-52820533D01*
X143095714Y-52820533D02*
X143048095Y-52963390D01*
X143048095Y-52963390D02*
X142476667Y-53534819D01*
X142476667Y-53534819D02*
X143095714Y-53534819D01*
X136859580Y-43666666D02*
X136907200Y-43714285D01*
X136907200Y-43714285D02*
X136954819Y-43857142D01*
X136954819Y-43857142D02*
X136954819Y-43952380D01*
X136954819Y-43952380D02*
X136907200Y-44095237D01*
X136907200Y-44095237D02*
X136811961Y-44190475D01*
X136811961Y-44190475D02*
X136716723Y-44238094D01*
X136716723Y-44238094D02*
X136526247Y-44285713D01*
X136526247Y-44285713D02*
X136383390Y-44285713D01*
X136383390Y-44285713D02*
X136192914Y-44238094D01*
X136192914Y-44238094D02*
X136097676Y-44190475D01*
X136097676Y-44190475D02*
X136002438Y-44095237D01*
X136002438Y-44095237D02*
X135954819Y-43952380D01*
X135954819Y-43952380D02*
X135954819Y-43857142D01*
X135954819Y-43857142D02*
X136002438Y-43714285D01*
X136002438Y-43714285D02*
X136050057Y-43666666D01*
X136954819Y-42714285D02*
X136954819Y-43285713D01*
X136954819Y-42999999D02*
X135954819Y-42999999D01*
X135954819Y-42999999D02*
X136097676Y-43095237D01*
X136097676Y-43095237D02*
X136192914Y-43190475D01*
X136192914Y-43190475D02*
X136240533Y-43285713D01*
X142143333Y-48034819D02*
X141810000Y-47558628D01*
X141571905Y-48034819D02*
X141571905Y-47034819D01*
X141571905Y-47034819D02*
X141952857Y-47034819D01*
X141952857Y-47034819D02*
X142048095Y-47082438D01*
X142048095Y-47082438D02*
X142095714Y-47130057D01*
X142095714Y-47130057D02*
X142143333Y-47225295D01*
X142143333Y-47225295D02*
X142143333Y-47368152D01*
X142143333Y-47368152D02*
X142095714Y-47463390D01*
X142095714Y-47463390D02*
X142048095Y-47511009D01*
X142048095Y-47511009D02*
X141952857Y-47558628D01*
X141952857Y-47558628D02*
X141571905Y-47558628D01*
X143095714Y-48034819D02*
X142524286Y-48034819D01*
X142810000Y-48034819D02*
X142810000Y-47034819D01*
X142810000Y-47034819D02*
X142714762Y-47177676D01*
X142714762Y-47177676D02*
X142619524Y-47272914D01*
X142619524Y-47272914D02*
X142524286Y-47320533D01*
D11*
X161166666Y-58957419D02*
X161166666Y-59671704D01*
X161166666Y-59671704D02*
X161119047Y-59814561D01*
X161119047Y-59814561D02*
X161023809Y-59909800D01*
X161023809Y-59909800D02*
X160880952Y-59957419D01*
X160880952Y-59957419D02*
X160785714Y-59957419D01*
X161595238Y-59052657D02*
X161642857Y-59005038D01*
X161642857Y-59005038D02*
X161738095Y-58957419D01*
X161738095Y-58957419D02*
X161976190Y-58957419D01*
X161976190Y-58957419D02*
X162071428Y-59005038D01*
X162071428Y-59005038D02*
X162119047Y-59052657D01*
X162119047Y-59052657D02*
X162166666Y-59147895D01*
X162166666Y-59147895D02*
X162166666Y-59243133D01*
X162166666Y-59243133D02*
X162119047Y-59385990D01*
X162119047Y-59385990D02*
X161547619Y-59957419D01*
X161547619Y-59957419D02*
X162166666Y-59957419D01*
D10*
X153023333Y-57034819D02*
X152690000Y-56558628D01*
X152451905Y-57034819D02*
X152451905Y-56034819D01*
X152451905Y-56034819D02*
X152832857Y-56034819D01*
X152832857Y-56034819D02*
X152928095Y-56082438D01*
X152928095Y-56082438D02*
X152975714Y-56130057D01*
X152975714Y-56130057D02*
X153023333Y-56225295D01*
X153023333Y-56225295D02*
X153023333Y-56368152D01*
X153023333Y-56368152D02*
X152975714Y-56463390D01*
X152975714Y-56463390D02*
X152928095Y-56511009D01*
X152928095Y-56511009D02*
X152832857Y-56558628D01*
X152832857Y-56558628D02*
X152451905Y-56558628D01*
X153356667Y-56034819D02*
X153975714Y-56034819D01*
X153975714Y-56034819D02*
X153642381Y-56415771D01*
X153642381Y-56415771D02*
X153785238Y-56415771D01*
X153785238Y-56415771D02*
X153880476Y-56463390D01*
X153880476Y-56463390D02*
X153928095Y-56511009D01*
X153928095Y-56511009D02*
X153975714Y-56606247D01*
X153975714Y-56606247D02*
X153975714Y-56844342D01*
X153975714Y-56844342D02*
X153928095Y-56939580D01*
X153928095Y-56939580D02*
X153880476Y-56987200D01*
X153880476Y-56987200D02*
X153785238Y-57034819D01*
X153785238Y-57034819D02*
X153499524Y-57034819D01*
X153499524Y-57034819D02*
X153404286Y-56987200D01*
X153404286Y-56987200D02*
X153356667Y-56939580D01*
D12*
%TO.C,SW1*%
X138750000Y-67250000D02*
X138750000Y-68750000D01*
X140000000Y-71250000D02*
X144500000Y-71250000D01*
X144500000Y-64750000D02*
X140000000Y-64750000D01*
X145750000Y-68750000D02*
X145750000Y-67250000D01*
%TO.C,BZ1*%
X136100000Y-32999999D02*
G75*
G02*
X136100000Y-30000000I6400000J1499999D01*
G01*
X148730000Y-31500000D02*
G75*
G02*
X136270000Y-31500000I-6230000J0D01*
G01*
X136270000Y-31500000D02*
G75*
G02*
X148730000Y-31500000I6230000J0D01*
G01*
%TO.C,J5*%
X150140000Y-67390000D02*
X150140000Y-68640000D01*
X150440000Y-69000000D02*
X151050000Y-69000000D01*
X150440000Y-70300000D02*
X151050000Y-70300000D01*
X151050000Y-68300000D02*
X151050000Y-71800000D01*
X151050000Y-71800000D02*
X155950000Y-71800000D01*
X151390000Y-67390000D02*
X150140000Y-67390000D01*
X151900000Y-67490000D02*
X151900000Y-67690000D01*
X152200000Y-67490000D02*
X151900000Y-67490000D01*
X152200000Y-67590000D02*
X151900000Y-67590000D01*
X152200000Y-67690000D02*
X152200000Y-67490000D01*
X153000000Y-67690000D02*
X153000000Y-68300000D01*
X153000000Y-68300000D02*
X151050000Y-68300000D01*
X153400000Y-71300000D02*
X153600000Y-71300000D01*
X153400000Y-71800000D02*
X153400000Y-71300000D01*
X153500000Y-71800000D02*
X153500000Y-71300000D01*
X153600000Y-71300000D02*
X153600000Y-71800000D01*
X154000000Y-68300000D02*
X154000000Y-67690000D01*
X155950000Y-68300000D02*
X154000000Y-68300000D01*
X155950000Y-71800000D02*
X155950000Y-68300000D01*
X156560000Y-69000000D02*
X155950000Y-69000000D01*
X156560000Y-70300000D02*
X155950000Y-70300000D01*
X150440000Y-67690000D02*
X156560000Y-67690000D01*
X156560000Y-72410000D01*
X150440000Y-72410000D01*
X150440000Y-67690000D01*
%TO.C,R5*%
X139440000Y-60500000D02*
X140390000Y-60500000D01*
X145180000Y-60500000D02*
X144230000Y-60500000D01*
X140390000Y-59580000D02*
X144230000Y-59580000D01*
X144230000Y-61420000D01*
X140390000Y-61420000D01*
X140390000Y-59580000D01*
%TO.C,J1*%
X111250000Y-39400000D02*
X111250000Y-42160000D01*
X126600000Y-39400000D02*
X111250000Y-39400000D01*
X126600000Y-39400000D02*
X126600000Y-42160000D01*
X126600000Y-42160000D02*
X111250000Y-42160000D01*
X127870000Y-39400000D02*
X129250000Y-39400000D01*
X129250000Y-39400000D02*
X129250000Y-40780000D01*
%TO.C,C2*%
X144130000Y-40880000D02*
X144467000Y-40880000D01*
X144130000Y-46120000D02*
X144130000Y-40880000D01*
X144467000Y-46120000D02*
X144130000Y-46120000D01*
X146533000Y-40880000D02*
X146870000Y-40880000D01*
X146870000Y-40880000D02*
X146870000Y-46120000D01*
X146870000Y-46120000D02*
X146533000Y-46120000D01*
%TO.C,R4*%
X150320000Y-64000000D02*
X151270000Y-64000000D01*
X156060000Y-64000000D02*
X155110000Y-64000000D01*
X151270000Y-63080000D02*
X155110000Y-63080000D01*
X155110000Y-64920000D01*
X151270000Y-64920000D01*
X151270000Y-63080000D01*
%TO.C,R2*%
X139440000Y-55000000D02*
X140390000Y-55000000D01*
X145180000Y-55000000D02*
X144230000Y-55000000D01*
X140390000Y-54080000D02*
X144230000Y-54080000D01*
X144230000Y-55920000D01*
X140390000Y-55920000D01*
X140390000Y-54080000D01*
%TO.C,C1*%
X137630000Y-40880000D02*
X137967000Y-40880000D01*
X137630000Y-46120000D02*
X137630000Y-40880000D01*
X137967000Y-46120000D02*
X137630000Y-46120000D01*
X140033000Y-40880000D02*
X140370000Y-40880000D01*
X140370000Y-40880000D02*
X140370000Y-46120000D01*
X140370000Y-46120000D02*
X140033000Y-46120000D01*
%TO.C,R1*%
X139440000Y-49500000D02*
X140390000Y-49500000D01*
X145180000Y-49500000D02*
X144230000Y-49500000D01*
X140390000Y-48580000D02*
X144230000Y-48580000D01*
X144230000Y-50420000D01*
X140390000Y-50420000D01*
X140390000Y-48580000D01*
D11*
%TO.C,J2*%
X175000000Y-64500000D02*
G75*
G02*
X162000000Y-64500000I-6500000J0D01*
G01*
X162000000Y-64500000D02*
G75*
G02*
X175000000Y-64500000I6500000J0D01*
G01*
D12*
%TO.C,R3*%
X150320000Y-58500000D02*
X151270000Y-58500000D01*
X156060000Y-58500000D02*
X155110000Y-58500000D01*
X151270000Y-57580000D02*
X155110000Y-57580000D01*
X155110000Y-59420000D01*
X151270000Y-59420000D01*
X151270000Y-57580000D01*
%TO.C,J3*%
X114120000Y-49380000D02*
X114120000Y-48000000D01*
X115500000Y-49380000D02*
X114120000Y-49380000D01*
X116770000Y-46620000D02*
X124500000Y-46620000D01*
X116770000Y-49380000D02*
X116770000Y-46620000D01*
X116770000Y-49380000D02*
X124500000Y-49380000D01*
X124500000Y-49380000D02*
X124500000Y-46620000D01*
%TD*%
M02*
