%TF.GenerationSoftware,KiCad,Pcbnew,9.0.8*%
%TF.CreationDate,2026-03-26T21:46:15-06:00*%
%TF.ProjectId,hivis2,68697669-7332-42e6-9b69-6361645f7063,rev?*%
%TF.SameCoordinates,Original*%
%TF.FileFunction,Soldermask,Top*%
%TF.FilePolarity,Negative*%
%FSLAX46Y46*%
G04 Gerber Fmt 4.6, Leading zero omitted, Abs format (unit mm)*
G04 Created by KiCad (PCBNEW 9.0.8) date 2026-03-26 21:46:15*
%MOMM*%
%LPD*%
G01*
G04 APERTURE LIST*
G04 Aperture macros list*
%AMRoundRect*
0 Rectangle with rounded corners*
0 $1 Rounding radius*
0 $2 $3 $4 $5 $6 $7 $8 $9 X,Y pos of 4 corners*
0 Add a 4 corners polygon primitive as box body*
4,1,4,$2,$3,$4,$5,$6,$7,$8,$9,$2,$3,0*
0 Add four circle primitives for the rounded corners*
1,1,$1+$1,$2,$3*
1,1,$1+$1,$4,$5*
1,1,$1+$1,$6,$7*
1,1,$1+$1,$8,$9*
0 Add four rect primitives between the rounded corners*
20,1,$1+$1,$2,$3,$4,$5,0*
20,1,$1+$1,$4,$5,$6,$7,0*
20,1,$1+$1,$6,$7,$8,$9,0*
20,1,$1+$1,$8,$9,$2,$3,0*%
G04 Aperture macros list end*
%ADD10RoundRect,0.135000X-0.135000X-0.185000X0.135000X-0.185000X0.135000X0.185000X-0.135000X0.185000X0*%
%ADD11RoundRect,0.140000X0.140000X0.170000X-0.140000X0.170000X-0.140000X-0.170000X0.140000X-0.170000X0*%
%ADD12O,1.900000X1.524000*%
%ADD13C,2.000000*%
%ADD14R,2.000000X2.000000*%
%ADD15C,1.700000*%
%ADD16RoundRect,0.250000X-0.350000X-0.625000X0.350000X-0.625000X0.350000X0.625000X-0.350000X0.625000X0*%
%ADD17O,1.200000X1.750000*%
%ADD18R,1.700000X1.700000*%
G04 APERTURE END LIST*
D10*
%TO.C,R5*%
X127490000Y-43250000D03*
X128510000Y-43250000D03*
%TD*%
%TO.C,R4*%
X129990000Y-46000000D03*
X131010000Y-46000000D03*
%TD*%
%TO.C,R3*%
X129990000Y-43250000D03*
X131010000Y-43250000D03*
%TD*%
%TO.C,R2*%
X122990000Y-45250000D03*
X124010000Y-45250000D03*
%TD*%
%TO.C,R1*%
X120240000Y-45250000D03*
X121260000Y-45250000D03*
%TD*%
D11*
%TO.C,C2*%
X118480000Y-45250000D03*
X117520000Y-45250000D03*
%TD*%
%TO.C,C1*%
X125980000Y-43250000D03*
X125020000Y-43250000D03*
%TD*%
D12*
%TO.C,U1*%
X134250040Y-66310013D03*
X134250040Y-63770013D03*
X134250040Y-61230013D03*
X134250040Y-58690013D03*
X134250040Y-56150013D03*
X134250040Y-53610013D03*
X134250040Y-51070013D03*
X134250040Y-48530013D03*
X134250040Y-45990013D03*
X134250040Y-43450013D03*
X134250040Y-40910013D03*
X134250040Y-38370013D03*
X134250040Y-35830013D03*
X134250040Y-33290013D03*
X134250040Y-30750013D03*
X108850040Y-66310013D03*
X108850040Y-63770013D03*
X108850040Y-61230013D03*
X108850040Y-58690013D03*
X108850040Y-56150013D03*
X108850040Y-53610013D03*
X108850040Y-51070013D03*
X108850040Y-48530013D03*
X108850040Y-45990013D03*
X108850040Y-43450013D03*
X108850040Y-40910013D03*
X108850040Y-38370013D03*
X108850040Y-35830013D03*
X108850040Y-33290013D03*
X108850040Y-30750013D03*
%TD*%
D13*
%TO.C,SW1*%
X144250000Y-72000000D03*
X137750000Y-72000000D03*
X144250000Y-67500000D03*
X137750000Y-67500000D03*
%TD*%
D14*
%TO.C,BZ1*%
X141750000Y-56750000D03*
D13*
X146750000Y-56750000D03*
%TD*%
D15*
%TO.C,J4*%
X138640000Y-25930000D03*
X153880000Y-25930000D03*
X161500000Y-25930000D03*
X166580000Y-25930000D03*
X151340000Y-46250000D03*
X161500000Y-46250000D03*
%TD*%
D16*
%TO.C,J5*%
X161000000Y-69500000D03*
D17*
X163000000Y-69500000D03*
%TD*%
D18*
%TO.C,J1*%
X129370000Y-39630000D03*
D15*
X126830000Y-39630000D03*
X124290000Y-39630000D03*
X121750000Y-39630000D03*
X119210000Y-39630000D03*
X116670000Y-39630000D03*
X114130000Y-39630000D03*
%TD*%
%TO.C,J2*%
X155500000Y-54250000D03*
X155500000Y-56790000D03*
X155500000Y-59330000D03*
X163500000Y-54250000D03*
X163500000Y-56790000D03*
X163500000Y-59330000D03*
%TD*%
D18*
%TO.C,J3*%
X116250000Y-48500000D03*
D15*
X118790000Y-48500000D03*
X121330000Y-48500000D03*
X123870000Y-48500000D03*
%TD*%
M02*
