%TF.GenerationSoftware,KiCad,Pcbnew,9.0.8*%
%TF.CreationDate,2026-03-26T21:46:15-06:00*%
%TF.ProjectId,hivis2,68697669-7332-42e6-9b69-6361645f7063,rev?*%
%TF.SameCoordinates,Original*%
%TF.FileFunction,Legend,Top*%
%TF.FilePolarity,Positive*%
%FSLAX46Y46*%
G04 Gerber Fmt 4.6, Leading zero omitted, Abs format (unit mm)*
G04 Created by KiCad (PCBNEW 9.0.8) date 2026-03-26 21:46:15*
%MOMM*%
%LPD*%
G01*
G04 APERTURE LIST*
%ADD10C,0.150000*%
%ADD11C,0.120000*%
%ADD12C,0.100000*%
G04 APERTURE END LIST*
D10*
X127833333Y-42534819D02*
X127500000Y-42058628D01*
X127261905Y-42534819D02*
X127261905Y-41534819D01*
X127261905Y-41534819D02*
X127642857Y-41534819D01*
X127642857Y-41534819D02*
X127738095Y-41582438D01*
X127738095Y-41582438D02*
X127785714Y-41630057D01*
X127785714Y-41630057D02*
X127833333Y-41725295D01*
X127833333Y-41725295D02*
X127833333Y-41868152D01*
X127833333Y-41868152D02*
X127785714Y-41963390D01*
X127785714Y-41963390D02*
X127738095Y-42011009D01*
X127738095Y-42011009D02*
X127642857Y-42058628D01*
X127642857Y-42058628D02*
X127261905Y-42058628D01*
X128738095Y-41534819D02*
X128261905Y-41534819D01*
X128261905Y-41534819D02*
X128214286Y-42011009D01*
X128214286Y-42011009D02*
X128261905Y-41963390D01*
X128261905Y-41963390D02*
X128357143Y-41915771D01*
X128357143Y-41915771D02*
X128595238Y-41915771D01*
X128595238Y-41915771D02*
X128690476Y-41963390D01*
X128690476Y-41963390D02*
X128738095Y-42011009D01*
X128738095Y-42011009D02*
X128785714Y-42106247D01*
X128785714Y-42106247D02*
X128785714Y-42344342D01*
X128785714Y-42344342D02*
X128738095Y-42439580D01*
X128738095Y-42439580D02*
X128690476Y-42487200D01*
X128690476Y-42487200D02*
X128595238Y-42534819D01*
X128595238Y-42534819D02*
X128357143Y-42534819D01*
X128357143Y-42534819D02*
X128261905Y-42487200D01*
X128261905Y-42487200D02*
X128214286Y-42439580D01*
X130333333Y-45284819D02*
X130000000Y-44808628D01*
X129761905Y-45284819D02*
X129761905Y-44284819D01*
X129761905Y-44284819D02*
X130142857Y-44284819D01*
X130142857Y-44284819D02*
X130238095Y-44332438D01*
X130238095Y-44332438D02*
X130285714Y-44380057D01*
X130285714Y-44380057D02*
X130333333Y-44475295D01*
X130333333Y-44475295D02*
X130333333Y-44618152D01*
X130333333Y-44618152D02*
X130285714Y-44713390D01*
X130285714Y-44713390D02*
X130238095Y-44761009D01*
X130238095Y-44761009D02*
X130142857Y-44808628D01*
X130142857Y-44808628D02*
X129761905Y-44808628D01*
X131190476Y-44618152D02*
X131190476Y-45284819D01*
X130952381Y-44237200D02*
X130714286Y-44951485D01*
X130714286Y-44951485D02*
X131333333Y-44951485D01*
X130333333Y-42534819D02*
X130000000Y-42058628D01*
X129761905Y-42534819D02*
X129761905Y-41534819D01*
X129761905Y-41534819D02*
X130142857Y-41534819D01*
X130142857Y-41534819D02*
X130238095Y-41582438D01*
X130238095Y-41582438D02*
X130285714Y-41630057D01*
X130285714Y-41630057D02*
X130333333Y-41725295D01*
X130333333Y-41725295D02*
X130333333Y-41868152D01*
X130333333Y-41868152D02*
X130285714Y-41963390D01*
X130285714Y-41963390D02*
X130238095Y-42011009D01*
X130238095Y-42011009D02*
X130142857Y-42058628D01*
X130142857Y-42058628D02*
X129761905Y-42058628D01*
X130666667Y-41534819D02*
X131285714Y-41534819D01*
X131285714Y-41534819D02*
X130952381Y-41915771D01*
X130952381Y-41915771D02*
X131095238Y-41915771D01*
X131095238Y-41915771D02*
X131190476Y-41963390D01*
X131190476Y-41963390D02*
X131238095Y-42011009D01*
X131238095Y-42011009D02*
X131285714Y-42106247D01*
X131285714Y-42106247D02*
X131285714Y-42344342D01*
X131285714Y-42344342D02*
X131238095Y-42439580D01*
X131238095Y-42439580D02*
X131190476Y-42487200D01*
X131190476Y-42487200D02*
X131095238Y-42534819D01*
X131095238Y-42534819D02*
X130809524Y-42534819D01*
X130809524Y-42534819D02*
X130714286Y-42487200D01*
X130714286Y-42487200D02*
X130666667Y-42439580D01*
X123333333Y-44534819D02*
X123000000Y-44058628D01*
X122761905Y-44534819D02*
X122761905Y-43534819D01*
X122761905Y-43534819D02*
X123142857Y-43534819D01*
X123142857Y-43534819D02*
X123238095Y-43582438D01*
X123238095Y-43582438D02*
X123285714Y-43630057D01*
X123285714Y-43630057D02*
X123333333Y-43725295D01*
X123333333Y-43725295D02*
X123333333Y-43868152D01*
X123333333Y-43868152D02*
X123285714Y-43963390D01*
X123285714Y-43963390D02*
X123238095Y-44011009D01*
X123238095Y-44011009D02*
X123142857Y-44058628D01*
X123142857Y-44058628D02*
X122761905Y-44058628D01*
X123714286Y-43630057D02*
X123761905Y-43582438D01*
X123761905Y-43582438D02*
X123857143Y-43534819D01*
X123857143Y-43534819D02*
X124095238Y-43534819D01*
X124095238Y-43534819D02*
X124190476Y-43582438D01*
X124190476Y-43582438D02*
X124238095Y-43630057D01*
X124238095Y-43630057D02*
X124285714Y-43725295D01*
X124285714Y-43725295D02*
X124285714Y-43820533D01*
X124285714Y-43820533D02*
X124238095Y-43963390D01*
X124238095Y-43963390D02*
X123666667Y-44534819D01*
X123666667Y-44534819D02*
X124285714Y-44534819D01*
X120583333Y-44534819D02*
X120250000Y-44058628D01*
X120011905Y-44534819D02*
X120011905Y-43534819D01*
X120011905Y-43534819D02*
X120392857Y-43534819D01*
X120392857Y-43534819D02*
X120488095Y-43582438D01*
X120488095Y-43582438D02*
X120535714Y-43630057D01*
X120535714Y-43630057D02*
X120583333Y-43725295D01*
X120583333Y-43725295D02*
X120583333Y-43868152D01*
X120583333Y-43868152D02*
X120535714Y-43963390D01*
X120535714Y-43963390D02*
X120488095Y-44011009D01*
X120488095Y-44011009D02*
X120392857Y-44058628D01*
X120392857Y-44058628D02*
X120011905Y-44058628D01*
X121535714Y-44534819D02*
X120964286Y-44534819D01*
X121250000Y-44534819D02*
X121250000Y-43534819D01*
X121250000Y-43534819D02*
X121154762Y-43677676D01*
X121154762Y-43677676D02*
X121059524Y-43772914D01*
X121059524Y-43772914D02*
X120964286Y-43820533D01*
X117833333Y-46769580D02*
X117785714Y-46817200D01*
X117785714Y-46817200D02*
X117642857Y-46864819D01*
X117642857Y-46864819D02*
X117547619Y-46864819D01*
X117547619Y-46864819D02*
X117404762Y-46817200D01*
X117404762Y-46817200D02*
X117309524Y-46721961D01*
X117309524Y-46721961D02*
X117261905Y-46626723D01*
X117261905Y-46626723D02*
X117214286Y-46436247D01*
X117214286Y-46436247D02*
X117214286Y-46293390D01*
X117214286Y-46293390D02*
X117261905Y-46102914D01*
X117261905Y-46102914D02*
X117309524Y-46007676D01*
X117309524Y-46007676D02*
X117404762Y-45912438D01*
X117404762Y-45912438D02*
X117547619Y-45864819D01*
X117547619Y-45864819D02*
X117642857Y-45864819D01*
X117642857Y-45864819D02*
X117785714Y-45912438D01*
X117785714Y-45912438D02*
X117833333Y-45960057D01*
X118214286Y-45960057D02*
X118261905Y-45912438D01*
X118261905Y-45912438D02*
X118357143Y-45864819D01*
X118357143Y-45864819D02*
X118595238Y-45864819D01*
X118595238Y-45864819D02*
X118690476Y-45912438D01*
X118690476Y-45912438D02*
X118738095Y-45960057D01*
X118738095Y-45960057D02*
X118785714Y-46055295D01*
X118785714Y-46055295D02*
X118785714Y-46150533D01*
X118785714Y-46150533D02*
X118738095Y-46293390D01*
X118738095Y-46293390D02*
X118166667Y-46864819D01*
X118166667Y-46864819D02*
X118785714Y-46864819D01*
X125333333Y-44769580D02*
X125285714Y-44817200D01*
X125285714Y-44817200D02*
X125142857Y-44864819D01*
X125142857Y-44864819D02*
X125047619Y-44864819D01*
X125047619Y-44864819D02*
X124904762Y-44817200D01*
X124904762Y-44817200D02*
X124809524Y-44721961D01*
X124809524Y-44721961D02*
X124761905Y-44626723D01*
X124761905Y-44626723D02*
X124714286Y-44436247D01*
X124714286Y-44436247D02*
X124714286Y-44293390D01*
X124714286Y-44293390D02*
X124761905Y-44102914D01*
X124761905Y-44102914D02*
X124809524Y-44007676D01*
X124809524Y-44007676D02*
X124904762Y-43912438D01*
X124904762Y-43912438D02*
X125047619Y-43864819D01*
X125047619Y-43864819D02*
X125142857Y-43864819D01*
X125142857Y-43864819D02*
X125285714Y-43912438D01*
X125285714Y-43912438D02*
X125333333Y-43960057D01*
X126285714Y-44864819D02*
X125714286Y-44864819D01*
X126000000Y-44864819D02*
X126000000Y-43864819D01*
X126000000Y-43864819D02*
X125904762Y-44007676D01*
X125904762Y-44007676D02*
X125809524Y-44102914D01*
X125809524Y-44102914D02*
X125714286Y-44150533D01*
D11*
%TO.C,R5*%
X127846359Y-42870000D02*
X128153641Y-42870000D01*
X127846359Y-43630000D02*
X128153641Y-43630000D01*
%TO.C,R4*%
X130346359Y-45620000D02*
X130653641Y-45620000D01*
X130346359Y-46380000D02*
X130653641Y-46380000D01*
%TO.C,R3*%
X130346359Y-42870000D02*
X130653641Y-42870000D01*
X130346359Y-43630000D02*
X130653641Y-43630000D01*
%TO.C,R2*%
X123346359Y-44870000D02*
X123653641Y-44870000D01*
X123346359Y-45630000D02*
X123653641Y-45630000D01*
%TO.C,R1*%
X120596359Y-44870000D02*
X120903641Y-44870000D01*
X120596359Y-45630000D02*
X120903641Y-45630000D01*
%TO.C,C2*%
X118107836Y-45610000D02*
X117892164Y-45610000D01*
X118107836Y-44890000D02*
X117892164Y-44890000D01*
%TO.C,C1*%
X125607836Y-43610000D02*
X125392164Y-43610000D01*
X125607836Y-42890000D02*
X125392164Y-42890000D01*
%TO.C,SW1*%
X137500000Y-69000000D02*
X137500000Y-70500000D01*
X138750000Y-73000000D02*
X143250000Y-73000000D01*
X143250000Y-66500000D02*
X138750000Y-66500000D01*
X144500000Y-70500000D02*
X144500000Y-69000000D01*
%TO.C,BZ1*%
X137850000Y-58249999D02*
G75*
G02*
X137850000Y-55250000I6400000J1499999D01*
G01*
X150480000Y-56750000D02*
G75*
G02*
X138020000Y-56750000I-6230000J0D01*
G01*
X138020000Y-56750000D02*
G75*
G02*
X150480000Y-56750000I6230000J0D01*
G01*
%TO.C,J5*%
X158640000Y-67390000D02*
X158640000Y-68640000D01*
X158940000Y-69000000D02*
X159550000Y-69000000D01*
X158940000Y-70300000D02*
X159550000Y-70300000D01*
X159550000Y-68300000D02*
X159550000Y-71800000D01*
X159550000Y-71800000D02*
X164450000Y-71800000D01*
X159890000Y-67390000D02*
X158640000Y-67390000D01*
X160400000Y-67490000D02*
X160400000Y-67690000D01*
X160700000Y-67490000D02*
X160400000Y-67490000D01*
X160700000Y-67590000D02*
X160400000Y-67590000D01*
X160700000Y-67690000D02*
X160700000Y-67490000D01*
X161500000Y-67690000D02*
X161500000Y-68300000D01*
X161500000Y-68300000D02*
X159550000Y-68300000D01*
X161900000Y-71300000D02*
X162100000Y-71300000D01*
X161900000Y-71800000D02*
X161900000Y-71300000D01*
X162000000Y-71800000D02*
X162000000Y-71300000D01*
X162100000Y-71300000D02*
X162100000Y-71800000D01*
X162500000Y-68300000D02*
X162500000Y-67690000D01*
X164450000Y-68300000D02*
X162500000Y-68300000D01*
X164450000Y-71800000D02*
X164450000Y-68300000D01*
X165060000Y-69000000D02*
X164450000Y-69000000D01*
X165060000Y-70300000D02*
X164450000Y-70300000D01*
X158940000Y-67690000D02*
X165060000Y-67690000D01*
X165060000Y-72410000D01*
X158940000Y-72410000D01*
X158940000Y-67690000D01*
%TO.C,J1*%
X112750000Y-38250000D02*
X112750000Y-41010000D01*
X128100000Y-38250000D02*
X112750000Y-38250000D01*
X128100000Y-38250000D02*
X128100000Y-41010000D01*
X128100000Y-41010000D02*
X112750000Y-41010000D01*
X129370000Y-38250000D02*
X130750000Y-38250000D01*
X130750000Y-38250000D02*
X130750000Y-39630000D01*
D12*
%TO.C,J2*%
X166000000Y-56750000D02*
G75*
G02*
X153000000Y-56750000I-6500000J0D01*
G01*
X153000000Y-56750000D02*
G75*
G02*
X166000000Y-56750000I6500000J0D01*
G01*
D11*
%TO.C,J3*%
X114870000Y-49880000D02*
X114870000Y-48500000D01*
X116250000Y-49880000D02*
X114870000Y-49880000D01*
X117520000Y-47120000D02*
X125250000Y-47120000D01*
X117520000Y-49880000D02*
X117520000Y-47120000D01*
X117520000Y-49880000D02*
X125250000Y-49880000D01*
X125250000Y-49880000D02*
X125250000Y-47120000D01*
%TD*%
M02*
