%TF.GenerationSoftware,KiCad,Pcbnew,9.0.8*%
%TF.CreationDate,2026-03-26T21:46:15-06:00*%
%TF.ProjectId,hivis2,68697669-7332-42e6-9b69-6361645f7063,rev?*%
%TF.SameCoordinates,Original*%
%TF.FileFunction,Copper,L1,Top*%
%TF.FilePolarity,Positive*%
%FSLAX46Y46*%
G04 Gerber Fmt 4.6, Leading zero omitted, Abs format (unit mm)*
G04 Created by KiCad (PCBNEW 9.0.8) date 2026-03-26 21:46:15*
%MOMM*%
%LPD*%
G01*
G04 APERTURE LIST*
G04 Aperture macros list*
%AMRoundRect*
0 Rectangle with rounded corners*
0 $1 Rounding radius*
0 $2 $3 $4 $5 $6 $7 $8 $9 X,Y pos of 4 corners*
0 Add a 4 corners polygon primitive as box body*
4,1,4,$2,$3,$4,$5,$6,$7,$8,$9,$2,$3,0*
0 Add four circle primitives for the rounded corners*
1,1,$1+$1,$2,$3*
1,1,$1+$1,$4,$5*
1,1,$1+$1,$6,$7*
1,1,$1+$1,$8,$9*
0 Add four rect primitives between the rounded corners*
20,1,$1+$1,$2,$3,$4,$5,0*
20,1,$1+$1,$4,$5,$6,$7,0*
20,1,$1+$1,$6,$7,$8,$9,0*
20,1,$1+$1,$8,$9,$2,$3,0*%
G04 Aperture macros list end*
%TA.AperFunction,SMDPad,CuDef*%
%ADD10RoundRect,0.135000X-0.135000X-0.185000X0.135000X-0.185000X0.135000X0.185000X-0.135000X0.185000X0*%
%TD*%
%TA.AperFunction,SMDPad,CuDef*%
%ADD11RoundRect,0.140000X0.140000X0.170000X-0.140000X0.170000X-0.140000X-0.170000X0.140000X-0.170000X0*%
%TD*%
%TA.AperFunction,ComponentPad*%
%ADD12O,1.900000X1.524000*%
%TD*%
%TA.AperFunction,ComponentPad*%
%ADD13C,2.000000*%
%TD*%
%TA.AperFunction,ComponentPad*%
%ADD14R,2.000000X2.000000*%
%TD*%
%TA.AperFunction,ComponentPad*%
%ADD15C,1.700000*%
%TD*%
%TA.AperFunction,ComponentPad*%
%ADD16RoundRect,0.250000X-0.350000X-0.625000X0.350000X-0.625000X0.350000X0.625000X-0.350000X0.625000X0*%
%TD*%
%TA.AperFunction,ComponentPad*%
%ADD17O,1.200000X1.750000*%
%TD*%
%TA.AperFunction,ComponentPad*%
%ADD18R,1.700000X1.700000*%
%TD*%
%TA.AperFunction,ViaPad*%
%ADD19C,0.800000*%
%TD*%
%TA.AperFunction,Conductor*%
%ADD20C,0.250000*%
%TD*%
%TA.AperFunction,Conductor*%
%ADD21C,0.500000*%
%TD*%
G04 APERTURE END LIST*
D10*
%TO.P,R5,1*%
%TO.N,/Buzzer*%
X127490000Y-43250000D03*
%TO.P,R5,2*%
%TO.N,Net-(BZ1-+)*%
X128510000Y-43250000D03*
%TD*%
%TO.P,R4,1*%
%TO.N,/BAT_ADC*%
X129990000Y-46000000D03*
%TO.P,R4,2*%
%TO.N,GND*%
X131010000Y-46000000D03*
%TD*%
%TO.P,R3,1*%
%TO.N,+BATT*%
X129990000Y-43250000D03*
%TO.P,R3,2*%
%TO.N,/BAT_ADC*%
X131010000Y-43250000D03*
%TD*%
%TO.P,R2,1*%
%TO.N,+3V3*%
X122990000Y-45250000D03*
%TO.P,R2,2*%
%TO.N,/SDA*%
X124010000Y-45250000D03*
%TD*%
%TO.P,R1,1*%
%TO.N,+3V3*%
X120240000Y-45250000D03*
%TO.P,R1,2*%
%TO.N,/SCL*%
X121260000Y-45250000D03*
%TD*%
D11*
%TO.P,C2,1*%
%TO.N,+3V3*%
X118480000Y-45250000D03*
%TO.P,C2,2*%
%TO.N,GND*%
X117520000Y-45250000D03*
%TD*%
%TO.P,C1,1*%
%TO.N,+3V3*%
X125980000Y-43250000D03*
%TO.P,C1,2*%
%TO.N,GND*%
X125020000Y-43250000D03*
%TD*%
D12*
%TO.P,U1,1,VIN*%
%TO.N,+5V*%
X134250040Y-66310013D03*
%TO.P,U1,2,GND*%
%TO.N,GND*%
X134250040Y-63770013D03*
%TO.P,U1,3,GPIO13*%
X134250040Y-61230013D03*
%TO.P,U1,4,GPIO12*%
%TO.N,/I2S_WS*%
X134250040Y-58690013D03*
%TO.P,U1,5,GPIO14*%
%TO.N,/I2S_SCK*%
X134250040Y-56150013D03*
%TO.P,U1,6,GPIO27*%
%TO.N,unconnected-(U1-GPIO27-Pad6)*%
X134250040Y-53610013D03*
%TO.P,U1,7,GPIO26*%
%TO.N,/I2S_SD*%
X134250040Y-51070013D03*
%TO.P,U1,8,GPIO25*%
%TO.N,/Buzzer*%
X134250040Y-48530013D03*
%TO.P,U1,9,GPIO33*%
%TO.N,unconnected-(U1-GPIO33-Pad9)*%
X134250040Y-45990013D03*
%TO.P,U1,10,GPIO32*%
%TO.N,unconnected-(U1-GPIO32-Pad10)*%
X134250040Y-43450013D03*
%TO.P,U1,11,GPIO35*%
%TO.N,unconnected-(U1-GPIO35-Pad11)*%
X134250040Y-40910013D03*
%TO.P,U1,12,GPIO34*%
%TO.N,unconnected-(U1-GPIO34-Pad12)*%
X134250040Y-38370013D03*
%TO.P,U1,13,GPIO39*%
%TO.N,unconnected-(U1-GPIO39-Pad13)*%
X134250040Y-35830013D03*
%TO.P,U1,14,GPIO36*%
%TO.N,/BAT_ADC*%
X134250040Y-33290013D03*
%TO.P,U1,15,EN*%
%TO.N,unconnected-(U1-EN-Pad15)*%
X134250040Y-30750013D03*
%TO.P,U1,16,3.3v*%
%TO.N,+3V3*%
X108850040Y-66310013D03*
%TO.P,U1,17,GND*%
%TO.N,GND*%
X108850040Y-63770013D03*
%TO.P,U1,18,GPIO15*%
%TO.N,unconnected-(U1-GPIO15-Pad18)*%
X108850040Y-61230013D03*
%TO.P,U1,19,GPIO2*%
%TO.N,unconnected-(U1-GPIO2-Pad19)*%
X108850040Y-58690013D03*
%TO.P,U1,20,GPIO4*%
%TO.N,/BTN*%
X108850040Y-56150013D03*
%TO.P,U1,21,GPIO16*%
%TO.N,unconnected-(U1-GPIO16-Pad21)*%
X108850040Y-53610013D03*
%TO.P,U1,22,GPIO17*%
%TO.N,unconnected-(U1-GPIO17-Pad22)*%
X108850040Y-51070013D03*
%TO.P,U1,23,GPIO5*%
%TO.N,unconnected-(U1-GPIO5-Pad23)*%
X108850040Y-48530013D03*
%TO.P,U1,24,GPIO18*%
%TO.N,unconnected-(U1-GPIO18-Pad24)*%
X108850040Y-45990013D03*
%TO.P,U1,25,GPIO19*%
%TO.N,unconnected-(U1-GPIO19-Pad25)*%
X108850040Y-43450013D03*
%TO.P,U1,26,GPIO21*%
%TO.N,/SDA*%
X108850040Y-40910013D03*
%TO.P,U1,27,GPIO3*%
%TO.N,unconnected-(U1-GPIO3-Pad27)*%
X108850040Y-38370013D03*
%TO.P,U1,28,GPIO1*%
%TO.N,unconnected-(U1-GPIO1-Pad28)*%
X108850040Y-35830013D03*
%TO.P,U1,29,GPIO22*%
%TO.N,/SCL*%
X108850040Y-33290013D03*
%TO.P,U1,30,GPIO23*%
%TO.N,unconnected-(U1-GPIO23-Pad30)*%
X108850040Y-30750013D03*
%TD*%
D13*
%TO.P,SW1,1,1*%
%TO.N,/BTN*%
X144250000Y-72000000D03*
X137750000Y-72000000D03*
%TO.P,SW1,2,2*%
%TO.N,GND*%
X144250000Y-67500000D03*
X137750000Y-67500000D03*
%TD*%
D14*
%TO.P,BZ1,1,+*%
%TO.N,Net-(BZ1-+)*%
X141750000Y-56750000D03*
D13*
%TO.P,BZ1,2,-*%
%TO.N,GND*%
X146750000Y-56750000D03*
%TD*%
D15*
%TO.P,J4,1,Pin_1*%
%TO.N,GND*%
X138640000Y-25930000D03*
%TO.P,J4,2,Pin_2*%
%TO.N,unconnected-(J4-Pin_2-Pad2)*%
X153880000Y-25930000D03*
%TO.P,J4,3,Pin_3*%
%TO.N,GND*%
X161500000Y-25930000D03*
%TO.P,J4,4,Pin_4*%
%TO.N,+5V*%
X166580000Y-25930000D03*
%TO.P,J4,5,Pin_5*%
%TO.N,+BATT*%
X151340000Y-46250000D03*
%TO.P,J4,6,Pin_6*%
%TO.N,GND*%
X161500000Y-46250000D03*
%TD*%
D16*
%TO.P,J5,1,Pin_1*%
%TO.N,+BATT*%
X161000000Y-69500000D03*
D17*
%TO.P,J5,2,Pin_2*%
%TO.N,GND*%
X163000000Y-69500000D03*
%TD*%
D18*
%TO.P,J1,1,Pin_1*%
%TO.N,unconnected-(J1-Pin_1-Pad1)*%
X129370000Y-39630000D03*
D15*
%TO.P,J1,2,Pin_2*%
%TO.N,+3V3*%
X126830000Y-39630000D03*
%TO.P,J1,3,Pin_3*%
%TO.N,GND*%
X124290000Y-39630000D03*
%TO.P,J1,4,Pin_4*%
%TO.N,/SCL*%
X121750000Y-39630000D03*
%TO.P,J1,5,Pin_5*%
%TO.N,unconnected-(J1-Pin_5-Pad5)*%
X119210000Y-39630000D03*
%TO.P,J1,6,Pin_6*%
%TO.N,/SDA*%
X116670000Y-39630000D03*
%TO.P,J1,7,Pin_7*%
%TO.N,unconnected-(J1-Pin_7-Pad7)*%
X114130000Y-39630000D03*
%TD*%
%TO.P,J2,1,Pin_1*%
%TO.N,GND*%
X155500000Y-54250000D03*
%TO.P,J2,2,Pin_2*%
%TO.N,+3V3*%
X155500000Y-56790000D03*
%TO.P,J2,3,Pin_3*%
%TO.N,/I2S_SD*%
X155500000Y-59330000D03*
%TO.P,J2,4,Pin_4*%
%TO.N,GND*%
X163500000Y-54250000D03*
%TO.P,J2,5,Pin_5*%
%TO.N,/I2S_WS*%
X163500000Y-56790000D03*
%TO.P,J2,6,Pin_6*%
%TO.N,/I2S_SCK*%
X163500000Y-59330000D03*
%TD*%
D18*
%TO.P,J3,1,Pin_1*%
%TO.N,GND*%
X116250000Y-48500000D03*
D15*
%TO.P,J3,2,Pin_2*%
%TO.N,+3V3*%
X118790000Y-48500000D03*
%TO.P,J3,3,Pin_3*%
%TO.N,/SCL*%
X121330000Y-48500000D03*
%TO.P,J3,4,Pin_4*%
%TO.N,/SDA*%
X123870000Y-48500000D03*
%TD*%
D19*
%TO.N,Net-(BZ1-+)*%
X129648400Y-41593600D03*
%TO.N,+5V*%
X164847200Y-63946000D03*
%TO.N,GND*%
X114988300Y-44638000D03*
X131275000Y-44720500D03*
X123225800Y-43584500D03*
%TD*%
D20*
%TO.N,+BATT*%
X129246300Y-43993700D02*
X129990000Y-43250000D01*
X129246300Y-46300500D02*
X129246300Y-43993700D01*
X130060900Y-47115100D02*
X129246300Y-46300500D01*
X150474900Y-47115100D02*
X130060900Y-47115100D01*
X151340000Y-46250000D02*
X150474900Y-47115100D01*
%TO.N,Net-(BZ1-+)*%
X128510000Y-42732000D02*
X128510000Y-43250000D01*
X129648400Y-41593600D02*
X128510000Y-42732000D01*
%TO.N,/BTN*%
X137750000Y-72000000D02*
X144250000Y-72000000D01*
X121900000Y-56150000D02*
X137750000Y-72000000D01*
X108850000Y-56150000D02*
X121900000Y-56150000D01*
%TO.N,/Buzzer*%
X133338500Y-47618500D02*
X134250000Y-48530000D01*
X129925500Y-47618500D02*
X133338500Y-47618500D01*
X128794600Y-46487600D02*
X129925500Y-47618500D01*
X128794600Y-44554600D02*
X128794600Y-46487600D01*
X127490000Y-43250000D02*
X128794600Y-44554600D01*
%TO.N,/I2S_WS*%
X135338700Y-59778700D02*
X134250000Y-59778700D01*
X136561500Y-61001500D02*
X135338700Y-59778700D01*
X163505300Y-61001500D02*
X136561500Y-61001500D01*
X164698000Y-59808800D02*
X163505300Y-61001500D01*
X164698000Y-57988000D02*
X164698000Y-59808800D01*
X163500000Y-56790000D02*
X164698000Y-57988000D01*
X134250000Y-58690000D02*
X134250000Y-59778700D01*
%TO.N,+3V3*%
X118480000Y-48190000D02*
X118480000Y-45250000D01*
X118790000Y-48500000D02*
X118480000Y-48190000D01*
X122990000Y-44586900D02*
X122990000Y-45250000D01*
X120903100Y-44586900D02*
X120240000Y-45250000D01*
X122990000Y-44586900D02*
X120903100Y-44586900D01*
X120240000Y-45250000D02*
X118480000Y-45250000D01*
X126830000Y-42400000D02*
X125980000Y-43250000D01*
X126830000Y-39630000D02*
X126830000Y-42400000D01*
X125980000Y-43409600D02*
X125528900Y-43860700D01*
X125980000Y-43250000D02*
X125980000Y-43409600D01*
X148568100Y-49858100D02*
X155500000Y-56790000D01*
X131526300Y-49858100D02*
X148568100Y-49858100D01*
X125528900Y-43860700D02*
X131526300Y-49858100D01*
X124802700Y-44586900D02*
X122990000Y-44586900D01*
X125528900Y-43860700D02*
X124802700Y-44586900D01*
%TO.N,/BAT_ADC*%
X129990000Y-44270000D02*
X129990000Y-46000000D01*
X131010000Y-43250000D02*
X129990000Y-44270000D01*
X133943800Y-34378700D02*
X134250000Y-34378700D01*
X131010000Y-37312500D02*
X133943800Y-34378700D01*
X131010000Y-43250000D02*
X131010000Y-37312500D01*
X134250000Y-33290000D02*
X134250000Y-34378700D01*
%TO.N,+5V*%
X163571900Y-65221300D02*
X134250000Y-65221300D01*
X164847200Y-63946000D02*
X163571900Y-65221300D01*
X134250000Y-66310000D02*
X134250000Y-65221300D01*
%TO.N,/I2S_SCK*%
X134250000Y-56150000D02*
X134250000Y-57238700D01*
X135338700Y-57238700D02*
X134250000Y-57238700D01*
X138649800Y-60549800D02*
X135338700Y-57238700D01*
X162280200Y-60549800D02*
X138649800Y-60549800D01*
X163500000Y-59330000D02*
X162280200Y-60549800D01*
%TO.N,/I2S_SD*%
X147240000Y-51070000D02*
X155500000Y-59330000D01*
X134250000Y-51070000D02*
X147240000Y-51070000D01*
%TO.N,/SDA*%
X124010000Y-48360000D02*
X123870000Y-48500000D01*
X124010000Y-45250000D02*
X124010000Y-48360000D01*
X116670000Y-40910000D02*
X116670000Y-39630000D01*
X108850000Y-40910000D02*
X116670000Y-40910000D01*
%TO.N,/SCL*%
X115410000Y-33290000D02*
X121750000Y-39630000D01*
X108850000Y-33290000D02*
X115410000Y-33290000D01*
X121260000Y-48430000D02*
X121260000Y-45250000D01*
X121330000Y-48500000D02*
X121260000Y-48430000D01*
D21*
%TO.N,GND*%
X116908000Y-44638000D02*
X117520000Y-45250000D01*
X114988300Y-44638000D02*
X116908000Y-44638000D01*
X124685500Y-43584500D02*
X125020000Y-43250000D01*
X123225800Y-43584500D02*
X124685500Y-43584500D01*
X131275000Y-45735000D02*
X131010000Y-46000000D01*
X131275000Y-44720500D02*
X131275000Y-45735000D01*
X131275000Y-44720500D02*
X131275000Y-44974100D01*
X131275000Y-44974100D02*
X131275000Y-44720500D01*
%TD*%
M02*
