M48
; DRILL file {KiCad 9.0.8} date 2026-03-26T21:45:47-0600
; FORMAT={-:-/ absolute / metric / decimal}
; #@! TF.CreationDate,2026-03-26T21:45:47-06:00
; #@! TF.GenerationSoftware,Kicad,Pcbnew,9.0.8
; #@! TF.FileFunction,Plated,1,2,PTH
FMAT,2
METRIC
; #@! TA.AperFunction,Plated,PTH,ViaDrill
T1C0.400
; #@! TA.AperFunction,Plated,PTH,ComponentDrill
T2C0.750
; #@! TA.AperFunction,Plated,PTH,ComponentDrill
T3C0.800
; #@! TA.AperFunction,Plated,PTH,ComponentDrill
T4C1.000
; #@! TA.AperFunction,Plated,PTH,ComponentDrill
T5C1.100
%
G90
G05
T1
X114.988Y-44.638
X123.226Y-43.584
X129.648Y-41.594
X131.275Y-44.721
X164.847Y-63.946
T2
X161.0Y-69.5
X163.0Y-69.5
T3
X108.85Y-30.75
X108.85Y-33.29
X108.85Y-35.83
X108.85Y-38.37
X108.85Y-40.91
X108.85Y-43.45
X108.85Y-45.99
X108.85Y-48.53
X108.85Y-51.07
X108.85Y-53.61
X108.85Y-56.15
X108.85Y-58.69
X108.85Y-61.23
X108.85Y-63.77
X108.85Y-66.31
X134.25Y-30.75
X134.25Y-33.29
X134.25Y-35.83
X134.25Y-38.37
X134.25Y-40.91
X134.25Y-43.45
X134.25Y-45.99
X134.25Y-48.53
X134.25Y-51.07
X134.25Y-53.61
X134.25Y-56.15
X134.25Y-58.69
X134.25Y-61.23
X134.25Y-63.77
X134.25Y-66.31
T4
X114.13Y-39.63
X116.25Y-48.5
X116.67Y-39.63
X118.79Y-48.5
X119.21Y-39.63
X121.33Y-48.5
X121.75Y-39.63
X123.87Y-48.5
X124.29Y-39.63
X126.83Y-39.63
X129.37Y-39.63
X138.64Y-25.93
X141.75Y-56.75
X146.75Y-56.75
X151.34Y-46.25
X153.88Y-25.93
X155.5Y-54.25
X155.5Y-56.79
X155.5Y-59.33
X161.5Y-25.93
X161.5Y-46.25
X163.5Y-54.25
X163.5Y-56.79
X163.5Y-59.33
X166.58Y-25.93
T5
X137.75Y-67.5
X137.75Y-72.0
X144.25Y-67.5
X144.25Y-72.0
M30
